<?xml version="1.0" encoding="UTF-8"?>
<svg version="1.1" xmlns="http://www.w3.org/2000/svg" width="662" height="268">
<path d="M0 0 C2.37798616 1.28411253 4.68691467 2.60725515 7 4 C7.7314624 4.43513916 8.4629248 4.87027832 9.21655273 5.31860352 C16.78756798 9.83784391 24.3117196 14.43546454 31.84243774 19.02142334 C40.91295258 24.54423297 50.0182822 30.00507914 59.15426636 35.41888428 C61.17597806 36.61816518 63.19576697 37.82062445 65.21508789 39.02392578 C71.02932729 42.48504155 76.84878473 45.93047397 82.73274231 49.27209473 C84.53595389 50.29800376 86.33380949 51.33268099 88.13012695 52.37060547 C90.32263449 53.63404131 92.52523366 54.88017667 94.73901367 56.10595703 C95.70170166 56.66524902 96.66438965 57.22454102 97.65625 57.80078125 C98.49994141 58.27684814 99.34363281 58.75291504 100.21289062 59.2434082 C102 61 102 61 102.27148438 64.19995117 C102.18189453 65.12396729 102.09230469 66.0479834 102 67 C113.55529767 71.62211907 125.29024549 75.78448838 137 80 C137 97.82 137 115.64 137 134 C108.23673537 138.60212234 108.23673537 138.60212234 99.20703125 139.92285156 C98.14494446 140.0794928 97.08285767 140.23613403 95.98858643 140.39752197 C92.59683188 140.89711184 89.20471722 141.39418704 85.8125 141.890625 C84.63307831 142.06347771 83.45365662 142.23633041 82.23849487 142.41442108 C76.02972711 143.32415767 69.82065829 144.23180564 63.61132812 145.13769531 C57.23022762 146.06910201 50.85027759 147.00816776 44.47053528 147.94882584 C39.52113488 148.67714809 34.57091393 149.39976773 29.62045288 150.12084198 C27.26631296 150.46475939 24.91248523 150.81082124 22.55899048 151.15912628 C19.28106405 151.64372051 16.00205059 152.12018244 12.72265625 152.59472656 C11.76570862 152.7380542 10.80876099 152.88138184 9.82281494 153.02905273 C-0.95471882 154.56890674 -10.71942627 153.67163929 -21.48413086 152.17993164 C-22.93040249 151.98400756 -24.37674452 151.78860251 -25.82315063 151.59367371 C-29.72628521 151.06607702 -33.62836198 150.53101329 -37.53025889 149.99434972 C-41.61937791 149.4330397 -45.70935099 148.8780188 -49.79920959 148.3221283 C-56.65813278 147.38889733 -63.51639798 146.45094995 -70.37426758 145.51000977 C-78.30741192 144.42157946 -86.24145821 143.33993317 -94.17603964 142.26203257 C-101.81447184 141.22426719 -109.45234517 140.18244702 -117.08993721 139.13851738 C-120.33973725 138.69435492 -123.58971089 138.25149508 -126.83982658 137.80964851 C-130.65948282 137.29013606 -134.47863193 136.76704317 -138.29741287 136.24113655 C-139.70094768 136.04841898 -141.10465069 135.856922 -142.50852776 135.66671371 C-144.41925738 135.40762186 -146.32933212 135.14371382 -148.23936462 134.87953186 C-149.30986022 134.73296678 -150.38035582 134.58640169 -151.48329067 134.43539524 C-154 134 -154 134 -156 133 C-156 116.17 -156 99.34 -156 82 C-144.7488193 77.49952772 -144.7488193 77.49952772 -140.88476562 76.23925781 C-140.00387268 75.95022583 -139.12297974 75.66119385 -138.21539307 75.36340332 C-137.28837585 75.06301147 -136.36135864 74.76261963 -135.40625 74.453125 C-134.40237244 74.12501831 -133.39849487 73.79691162 -132.36419678 73.4588623 C-129.07724799 72.38578074 -125.78868739 71.31774023 -122.5 70.25 C-120.17931803 69.49395 -117.85868074 68.73776282 -115.53808594 67.98144531 C-97.72788405 62.18352153 -79.89876967 56.443692 -62.04516602 50.78076172 C-52.09638329 47.62101413 -42.17449805 44.4037383 -32.29296875 41.0390625 C-29.5448462 40.11221358 -26.79623083 39.18684049 -24.04748535 38.26184082 C-21.51500125 37.40133397 -18.99167298 36.51713797 -16.46777344 35.63183594 C-2.52568186 30.86360778 -2.52568186 30.86360778 5 34 C6.6037024 34.50821205 8.20925248 35.01062278 9.81640625 35.5078125 C11.40002227 36.04220145 12.98206409 36.58127802 14.5625 37.125 C15.78936523 37.54072266 15.78936523 37.54072266 17.04101562 37.96484375 C19.02876568 38.63905137 21.01459349 39.31892204 23 40 C19.08193171 38.38540398 15.13887384 36.84357379 11.1875 35.3125 C10.08728516 34.85810547 8.98707031 34.40371094 7.85351562 33.93554688 C6.76103516 33.51982422 5.66855469 33.10410156 4.54296875 32.67578125 C3.55321045 32.28302002 2.56345215 31.89025879 1.54370117 31.4855957 C-3.73273883 30.76256166 -8.00178459 32.36299472 -13 34 C-13.83348465 34.26389023 -14.6669693 34.52778046 -15.52571106 34.79966736 C-18.04606034 35.61078156 -20.55470943 36.45167102 -23.0625 37.30078125 C-23.99472885 37.61339401 -24.9269577 37.92600677 -25.88743591 38.24809265 C-27.88564924 38.91830744 -29.88343687 39.58979257 -31.88082886 40.26245117 C-37.26310537 42.07435981 -42.64914077 43.87502304 -48.03515625 45.67578125 C-49.13046158 46.04212677 -50.22576691 46.40847229 -51.35426331 46.78591919 C-63.41843578 50.81616717 -75.51174328 54.75509891 -87.61132812 58.67749023 C-89.3645908 59.24590795 -91.11784594 59.81434892 -92.87109375 60.3828125 C-93.74768646 60.66695511 -94.62427917 60.95109772 -95.5274353 61.24385071 C-102.84887117 63.61987115 -110.16124047 66.02303693 -117.47265625 68.4296875 C-120.87125631 69.54650346 -124.26997449 70.66295921 -127.66873169 71.77929688 C-129.87795955 72.5059444 -132.08668591 73.23411856 -134.29489136 73.96386719 C-137.36197448 74.97726757 -140.43077999 75.98528095 -143.5 76.9921875 C-144.41971085 77.29768524 -145.33942169 77.60318298 -146.28700256 77.91793823 C-147.13072922 78.19364655 -147.97445587 78.46935486 -148.84375 78.75341797 C-149.94493164 79.11643509 -149.94493164 79.11643509 -151.06835938 79.48678589 C-153 80 -153 80 -156 80 C-156 74.72 -156 69.44 -156 64 C-147.79216202 60.47801139 -139.583831 56.95717346 -131.375 53.4375 C-130.43736942 53.03547489 -130.43736942 53.03547489 -129.48079681 52.62532806 C-108.14392512 43.47728692 -86.7966927 34.35390876 -65.42773438 25.28100586 C-54.73903595 20.74020831 -44.06528072 16.1695085 -33.421875 11.5234375 C-30.49842067 10.25205078 -27.57465493 8.98138274 -24.65081787 7.71087646 C-21.94203677 6.529243 -19.23885785 5.33541587 -16.53564453 4.14111328 C-14.91726141 3.43720621 -13.29862478 2.7338816 -11.6796875 2.03125 C-10.95328064 1.70546967 -10.22687378 1.37968933 -9.47845459 1.04403687 C-5.83055165 -0.52295347 -3.76357562 -1.29063403 0 0 Z M40 46 C42.1755306 48.1755306 43.55973892 48.71879553 46.4375 49.6875 C47.61119141 50.09548828 47.61119141 50.09548828 48.80859375 50.51171875 C51.15944221 51.23295323 51.15944221 51.23295323 54 50 C52.23141309 49.32739649 50.46003984 48.66211605 48.6875 48 C47.70136719 47.62875 46.71523438 47.2575 45.69921875 46.875 C42.99728344 45.84581498 42.99728344 45.84581498 40 46 Z " fill="#F6A623" transform="translate(234,60)"/>
<path d="M0 0 C2.37798616 1.28411253 4.68691467 2.60725515 7 4 C7.7314624 4.43513916 8.4629248 4.87027832 9.21655273 5.31860352 C16.78756798 9.83784391 24.3117196 14.43546454 31.84243774 19.02142334 C40.91295258 24.54423297 50.0182822 30.00507914 59.15426636 35.41888428 C61.17597806 36.61816518 63.19576697 37.82062445 65.21508789 39.02392578 C71.02932729 42.48504155 76.84878473 45.93047397 82.73274231 49.27209473 C84.53595389 50.29800376 86.33380949 51.33268099 88.13012695 52.37060547 C90.32263449 53.63404131 92.52523366 54.88017667 94.73901367 56.10595703 C95.70170166 56.66524902 96.66438965 57.22454102 97.65625 57.80078125 C98.49994141 58.27684814 99.34363281 58.75291504 100.21289062 59.2434082 C102 61 102 61 102.27148438 64.19995117 C102.18189453 65.12396729 102.09230469 66.0479834 102 67 C96.14769476 66.32583888 90.90044751 64.31528687 85.40234375 62.30859375 C84.35557968 61.93103439 83.30881561 61.55347504 82.23033142 61.16447449 C79.97366267 60.35003585 77.71777279 59.53343651 75.46258545 58.71490479 C71.91220076 57.42833217 68.35827674 56.15202643 64.80322266 54.87841797 C54.19020714 51.07149377 43.5887055 47.24117797 33.03767395 43.26521301 C28.95342301 41.72907019 24.8611122 40.2151738 20.76760864 38.70388794 C18.85372693 37.99004651 16.94398583 37.26499423 15.03878784 36.52828979 C12.38705067 35.5036236 9.7236193 34.51789425 7.0546875 33.5390625 C6.29534409 33.23389206 5.53600067 32.92872162 4.75364685 32.61430359 C-1.81904501 30.27716236 -6.56398274 31.75349866 -13 34 C-14.65754791 34.52906582 -16.31509989 35.05811887 -17.97265625 35.5871582 C-19.67029059 36.15532801 -21.36686933 36.7266594 -23.0625 37.30078125 C-23.99472885 37.61339401 -24.9269577 37.92600677 -25.88743591 38.24809265 C-27.88564924 38.91830744 -29.88343687 39.58979257 -31.88082886 40.26245117 C-37.26310537 42.07435981 -42.64914077 43.87502304 -48.03515625 45.67578125 C-49.13046158 46.04212677 -50.22576691 46.40847229 -51.35426331 46.78591919 C-63.41843578 50.81616717 -75.51174328 54.75509891 -87.61132812 58.67749023 C-89.3645908 59.24590795 -91.11784594 59.81434892 -92.87109375 60.3828125 C-93.74768646 60.66695511 -94.62427917 60.95109772 -95.5274353 61.24385071 C-102.84887117 63.61987115 -110.16124047 66.02303693 -117.47265625 68.4296875 C-120.87125631 69.54650346 -124.26997449 70.66295921 -127.66873169 71.77929688 C-129.87795955 72.5059444 -132.08668591 73.23411856 -134.29489136 73.96386719 C-137.36197448 74.97726757 -140.43077999 75.98528095 -143.5 76.9921875 C-144.41971085 77.29768524 -145.33942169 77.60318298 -146.28700256 77.91793823 C-147.13072922 78.19364655 -147.97445587 78.46935486 -148.84375 78.75341797 C-149.94493164 79.11643509 -149.94493164 79.11643509 -151.06835938 79.48678589 C-153 80 -153 80 -156 80 C-156 74.72 -156 69.44 -156 64 C-147.79216202 60.47801139 -139.583831 56.95717346 -131.375 53.4375 C-130.43736942 53.03547489 -130.43736942 53.03547489 -129.48079681 52.62532806 C-108.14392512 43.47728692 -86.7966927 34.35390876 -65.42773438 25.28100586 C-54.73903595 20.74020831 -44.06528072 16.1695085 -33.421875 11.5234375 C-30.49842067 10.25205078 -27.57465493 8.98138274 -24.65081787 7.71087646 C-21.94203677 6.529243 -19.23885785 5.33541587 -16.53564453 4.14111328 C-14.91726141 3.43720621 -13.29862478 2.7338816 -11.6796875 2.03125 C-10.95328064 1.70546967 -10.22687378 1.37968933 -9.47845459 1.04403687 C-5.83055165 -0.52295347 -3.76357562 -1.29063403 0 0 Z " fill="#BE5A19" transform="translate(234,60)"/>
<path d="M0 0 C0.7916448 25.6737147 1.14205451 51.3143588 1 77 C-8.10096224 76.40552374 -17.13005598 75.45071071 -26.17041016 74.27050781 C-28.28869877 73.99496616 -30.4079389 73.72774287 -32.52734375 73.4609375 C-33.87766755 73.28694955 -35.22793058 73.11248911 -36.578125 72.9375 C-38.39425293 72.70353516 -38.39425293 72.70353516 -40.24707031 72.46484375 C-43 72 -43 72 -44 71 C-44.09920863 69.07238183 -44.12799365 67.14110646 -44.12939453 65.2109375 C-44.13254669 63.9729541 -44.13569885 62.7349707 -44.13894653 61.45947266 C-44.13715675 60.09798141 -44.1351058 58.73649049 -44.1328125 57.375 C-44.13348559 55.98876936 -44.13445566 54.60253883 -44.13571167 53.21630859 C-44.1371884 50.30760578 -44.1350349 47.39893363 -44.13037109 44.49023438 C-44.12467381 40.75403402 -44.12795294 37.01790548 -44.13394356 33.28170776 C-44.13754985 30.41820734 -44.13641027 27.55472407 -44.13381577 24.69122314 C-44.13314668 23.31325268 -44.13397426 21.93528068 -44.13629532 20.55731201 C-44.13882292 18.63456246 -44.13429024 16.71180748 -44.12939453 14.7890625 C-44.12859894 13.69287598 -44.12780334 12.59668945 -44.12698364 11.46728516 C-44 9 -44 9 -43 8 C-41.22131096 7.59579522 -39.4307263 7.24368826 -37.63671875 6.9140625 C-36.52103516 6.70523438 -35.40535156 6.49640625 -34.25585938 6.28125 C-32.48952148 5.95640625 -32.48952148 5.95640625 -30.6875 5.625 C-22.91732558 4.1953938 -15.25658931 2.64750976 -7.63208008 0.56396484 C-5.00401028 0.00085927 -2.67845912 -0.10358849 0 0 Z " fill="#BC5817" transform="translate(224,132)"/>
<path d="M0 0 C4.66071946 3.59790119 7.73039861 7.52625546 10 13 C10.5466459 12.81909411 11.0932918 12.63818823 11.65650272 12.45180035 C14.520268 11.89969809 16.62460796 12.25690769 19.49595642 12.77119446 C20.61739894 12.9667927 21.73884146 13.16239094 22.89426708 13.3639164 C24.12403932 13.58582838 25.35381155 13.80774036 26.62084961 14.03637695 C28.62332395 14.38660833 30.6263976 14.73326631 32.62952119 15.07976341 C34.0574974 15.32686302 35.48532276 15.57483568 36.91300744 15.82361412 C112.09032251 28.90652163 179.57165568 37.48982997 255.07177734 21.06347656 C264.99324465 18.90981816 274.96507207 17.34757877 285.01953125 15.9609375 C285.77231543 15.85614704 286.5250996 15.75135658 287.30069542 15.64339066 C299.18452787 14 299.18452787 14 303 14 C303.04241723 16.33294775 303.04092937 18.66702567 303 21 C301.33205623 22.66794377 299.1756192 22.53701988 296.88679504 22.88626099 C295.22383644 23.14291534 295.22383644 23.14291534 293.52728271 23.40475464 C292.29987366 23.58974518 291.0724646 23.77473572 289.80786133 23.96533203 C288.52322495 24.16215576 287.23858856 24.35897949 285.9150238 24.56176758 C282.37772591 25.10321784 278.83958851 25.6389694 275.30114961 26.17290735 C273.08662714 26.5071189 270.87223422 26.84217677 268.65787315 27.1774559 C261.71943712 28.22758369 254.78044312 29.27391993 247.84070092 30.31538117 C239.85120599 31.51447408 231.86376293 32.72618952 223.87786657 33.94901383 C217.69584154 34.89479134 211.51210119 35.82875836 205.32698458 36.75409973 C201.63878765 37.30615966 197.95148199 37.86303871 194.26590919 38.43237686 C190.7868652 38.9694961 187.30588695 39.49173367 183.82300758 40.00337219 C181.95866642 40.28089362 180.09655166 40.57324998 178.23458862 40.86630249 C165.13756151 42.7584555 152.66205413 40.96489948 139.67016602 38.99047852 C138.30023202 38.78623756 136.93022958 38.58245524 135.56016541 38.37908936 C131.88633238 37.83233707 128.21353119 37.27893622 124.54093289 36.72395825 C120.67703506 36.14099797 116.81232427 35.56347184 112.94773865 34.98509216 C106.4692208 34.01462332 99.9913761 33.03975823 93.51391602 32.06225586 C86.03929477 30.93433314 78.56361771 29.81362893 71.08734757 28.69669205 C63.86574774 27.61761688 56.64494566 26.53328994 49.42448235 25.44663811 C46.36312197 24.98601827 43.30149246 24.52725208 40.23962593 24.07000923 C36.63638621 23.53169033 33.03386888 22.98876877 29.43184853 22.44235229 C27.48836338 22.14863237 25.54419446 21.85944796 23.6000061 21.57041931 C17.91547008 20.7036387 12.48691408 19.71743399 7 18 C5.08764225 17.75171665 3.16657663 17.5619317 1.2421875 17.4375 C-0.31435547 17.32535156 -0.31435547 17.32535156 -1.90234375 17.2109375 C-4.05856048 17.06980331 -6.21481084 16.92918197 -8.37109375 16.7890625 C-9.40621094 16.71429688 -10.44132812 16.63953125 -11.5078125 16.5625 C-12.90990967 16.47162109 -12.90990967 16.47162109 -14.34033203 16.37890625 C-18.54267795 15.78022433 -21.26211035 14.71794668 -24.3125 11.75 C-26.35137165 8.42739435 -26.63894172 6.8336503 -26 3 C-19.82178862 -7.06819632 -9.08512052 -4.97275457 0 0 Z " fill="#3685C6" transform="translate(67,183)"/>
<path d="M0 0 C12.39646202 2.25390219 12.39646202 2.25390219 18.09375 3.47265625 C19.30804688 3.73240234 20.52234375 3.99214844 21.7734375 4.25976562 C23.00320313 4.52466797 24.23296875 4.78957031 25.5 5.0625 C27.39105469 5.4656543 27.39105469 5.4656543 29.3203125 5.87695312 C31.12628906 6.26463867 31.12628906 6.26463867 32.96875 6.66015625 C34.59973633 7.01025757 34.59973633 7.01025757 36.26367188 7.36743164 C39 8 39 8 42 9 C42 28.8 42 48.6 42 69 C35.8125 69.99 29.625 70.98 23.25 72 C21.30254883 72.31324219 19.35509766 72.62648438 17.34863281 72.94921875 C15.80016925 73.19555805 14.25166908 73.44166737 12.703125 73.6875 C11.90310059 73.81705078 11.10307617 73.94660156 10.27880859 74.08007812 C6.79217606 74.63094421 3.5395034 75 0 75 C0 50.25 0 25.5 0 0 Z " fill="#BC5817" transform="translate(242,133)"/>
<path d="M0 0 C7.08863161 5.11040884 10.76223813 11.42066361 12.6875 19.9375 C13.64172014 28.58981067 12.29070874 36.75668794 10.76220703 45.23364258 C9.06535212 55.40560538 9.41716625 65.66065864 9.6875 75.9375 C4.13360929 73.9560592 0.22242135 70.607472 -4.3125 66.9375 C-5.7975 65.8546875 -5.7975 65.8546875 -7.3125 64.75 C-17.67236812 55.94844073 -23.27622079 43.58624378 -26.625 30.75 C-26.79684814 30.09676758 -26.96869629 29.44353516 -27.14575195 28.77050781 C-29.01227052 21.03152222 -29.30354274 13.05310909 -25.3125 5.9375 C-18.21579921 -1.1296312 -9.59524455 -3.07771995 0 0 Z " fill="#FBDD17" transform="translate(59.3125,92.0625)"/>
<path d="M0 0 C0.495 0.268125 0.99 0.53625 1.5 0.8125 C4.33280551 2.15808262 7.21968078 3.13857384 10.1953125 4.12109375 C12 5 12 5 14 8 C14.99 8.33 15.98 8.66 17 9 C20 10 20 10 22 13 C23.010625 13.309375 24.02125 13.61875 25.0625 13.9375 C26.031875 14.288125 27.00125 14.63875 28 15 C28.875 17.125 28.875 17.125 29 19 C30.98 19 32.96 19 35 19 C35.185625 19.61875 35.37125 20.2375 35.5625 20.875 C37.68947801 24.01922836 40.44077298 24.02930172 44 25 C44.33 25.99 44.66 26.98 45 28 C45.94875 28.0825 46.8975 28.165 47.875 28.25 C51 29 51 29 52.375 31.0625 C52.58125 31.701875 52.7875 32.34125 53 33 C53.763125 32.9175 54.52625 32.835 55.3125 32.75 C56.199375 32.8325 57.08625 32.915 58 33 C59.04115841 34.30144802 60.03886134 35.63838689 61 37 C62.66392045 37.67349161 64.33032028 38.3409159 66 39 C66.33 39.99 66.66 40.98 67 42 C70.51190809 43.22969878 70.51190809 43.22969878 74 44 C74.33 45.32 74.66 46.64 75 48 C77.31 48 79.62 48 82 48 C82.20625 48.639375 82.4125 49.27875 82.625 49.9375 C83.89538209 52.34925077 83.89538209 52.34925077 87.125 52.75 C88.07375 52.8325 89.0225 52.915 90 53 C90 54.32 90 55.64 90 57 C91.3921875 56.8453125 91.3921875 56.8453125 92.8125 56.6875 C93.864375 56.790625 94.91625 56.89375 96 57 C97.03013277 58.64821244 98.03114628 60.31503702 99 62 C101.54190002 62.2500773 101.54190002 62.2500773 104 62 C106 64 106 64 106.1953125 65.9453125 C106.13020833 67.96354167 106.06510417 69.98177083 106 72 C100.45852261 70.49826841 96.19016642 67.78725842 91.4375 64.6875 C89.73627643 63.59541995 88.03443115 62.5043079 86.33203125 61.4140625 C85.45369629 60.84977539 84.57536133 60.28548828 83.67041016 59.70410156 C79.34899763 56.94642562 74.98788 54.25391619 70.625 51.5625 C69.75222412 51.02326904 68.87944824 50.48403809 67.98022461 49.9284668 C66.20607499 48.83238593 64.43174208 47.73660168 62.65722656 46.64111328 C58.26922135 43.93106449 53.88476231 41.21529134 49.5 38.5 C44.19214775 35.21364365 38.88389784 31.92793539 33.57421875 28.64453125 C32.68154297 28.0913623 31.78886719 27.53819336 30.86914062 26.96826172 C29.09683877 25.87396536 27.32084146 24.78562917 25.54101562 23.70361328 C21.43787436 21.19828531 17.44795663 18.64539789 13.58203125 15.78515625 C12.54236206 15.04688599 12.54236206 15.04688599 11.48168945 14.29370117 C10.21346115 13.38577033 8.9699441 12.44161581 7.76245117 11.4543457 C5.76233803 10.05389982 4.41982679 9.38994156 2 9 C-1.91025112 9.85727065 -5.41484175 11.4208646 -9.03875732 13.10009766 C-11.09975519 14.04577196 -13.17778072 14.93867078 -15.26611328 15.82226562 C-19.3817786 17.5659515 -23.48313396 19.34085451 -27.58169556 21.12432861 C-32.41654886 23.22797041 -37.25532892 25.32254908 -42.09375 27.41796875 C-43.12478348 27.86470947 -44.15581696 28.3114502 -45.21809387 28.77172852 C-59.09072277 34.77821641 -72.99449111 40.71216544 -86.89376831 46.65664673 C-98.99900706 51.83527477 -111.09849631 57.02520715 -123.16015625 62.3046875 C-124.08784317 62.71059113 -125.01553009 63.11649475 -125.97132874 63.53469849 C-130.25220598 65.40918931 -134.53068782 67.28891338 -138.8059082 69.17626953 C-140.2846461 69.82589614 -141.76340448 70.47547612 -143.2421875 71.125 C-143.90698624 71.42058807 -144.57178497 71.71617615 -145.25672913 72.02072144 C-149.77380677 74 -149.77380677 74 -152 74 C-152.29296875 67.9453125 -152.29296875 67.9453125 -152 66 C-149 64 -149 64 -146.0625 64.125 C-142.87548813 64.34139383 -142.87548813 64.34139383 -140.9375 61.9375 C-140.298125 61.298125 -139.65875 60.65875 -139 60 C-136.25 60.25 -136.25 60.25 -134 61 C-133.34 59.68 -132.68 58.36 -132 57 C-130.02 57.33 -128.04 57.66 -126 58 C-125.34 56.68 -124.68 55.36 -124 54 C-122.02 54 -120.04 54 -118 54 C-117.34 52.68 -116.68 51.36 -116 50 C-114.02 50 -112.04 50 -110 50 C-109.67 49.01 -109.34 48.02 -109 47 C-107.906875 46.9175 -106.81375 46.835 -105.6875 46.75 C-101.96723336 46.36310791 -101.96723336 46.36310791 -100.0625 43.9375 C-99.5365625 42.9784375 -99.5365625 42.9784375 -99 42 C-96.03 42.495 -96.03 42.495 -93 43 C-93 42.01 -93 41.02 -93 40 C-91.329375 39.8453125 -91.329375 39.8453125 -89.625 39.6875 C-88.42875 39.460625 -87.2325 39.23375 -86 39 C-85.34 38.01 -84.68 37.02 -84 36 C-81.66752239 35.66073053 -79.33414529 35.32759934 -77 35 C-76.505 34.484375 -76.01 33.96875 -75.5 33.4375 C-74 32 -74 32 -70.3125 31.8125 C-68.6728125 31.9053125 -68.6728125 31.9053125 -67 32 C-67 31.01 -67 30.02 -67 29 C-65.865625 28.525625 -64.73125 28.05125 -63.5625 27.5625 C-60.24259834 26.36377917 -60.24259834 26.36377917 -59 25 C-57.865625 24.87625 -56.73125 24.7525 -55.5625 24.625 C-54.386875 24.41875 -53.21125 24.2125 -52 24 C-51.01 22.515 -51.01 22.515 -50 21 C-49.21625 21.020625 -48.4325 21.04125 -47.625 21.0625 C-44.83817593 21.29822615 -44.83817593 21.29822615 -43 19 C-41 17 -41 17 -38.375 16.9375 C-37.59125 16.958125 -36.8075 16.97875 -36 17 C-35.01 15.515 -35.01 15.515 -34 14 C-30.375 13.8125 -30.375 13.8125 -27 14 C-26.34 12.68 -25.68 11.36 -25 10 C-24.236875 10.0825 -23.47375 10.165 -22.6875 10.25 C-21.800625 10.1675 -20.91375 10.085 -20 10 C-19.54625 9.34 -19.0925 8.68 -18.625 8 C-18.08875 7.34 -17.5525 6.68 -17 6 C-13.3125 5.75 -13.3125 5.75 -10 6 C-9.67 5.01 -9.34 4.02 -9 3 C-7.88625 2.87625 -6.7725 2.7525 -5.625 2.625 C-1.96896323 2.3534187 -1.96896323 2.3534187 0 0 Z " fill="#946858" transform="translate(230,47)"/>
<path d="M0 0 C0 19.8 0 39.6 0 60 C-11.67078905 58.70324566 -23.33781981 57.3720212 -35 56 C-35 39.83 -35 23.66 -35 7 C-21.29207921 3.5730198 -21.29207921 3.5730198 -14.4375 2.375 C-1.03390957 0 -1.03390957 0 0 0 Z " fill="#BC5D1E" transform="translate(169,142)"/>
<path d="M0 0 C11.25 1.125 11.25 1.125 16.0078125 2.19140625 C16.9167627 2.39193604 17.82571289 2.59246582 18.76220703 2.79907227 C19.87192871 3.05100342 20.98165039 3.30293457 22.125 3.5625 C27.508125 4.7690625 27.508125 4.7690625 33 6 C33 21.18 33 36.36 33 52 C28.2975 52.66 23.595 53.32 18.75 54 C17.27241211 54.20882812 15.79482422 54.41765625 14.27246094 54.6328125 C12.5211084 54.87644531 12.5211084 54.87644531 10.734375 55.125 C8.94338379 55.37636719 8.94338379 55.37636719 7.11621094 55.6328125 C4 56 4 56 0 56 C0 37.52 0 19.04 0 0 Z " fill="#BC5919" transform="translate(292,144)"/>
<path d="M0 0 C14.85 0 29.7 0 45 0 C45 6.93 45 13.86 45 21 C42.36 21 39.72 21 37 21 C36.67 16.71 36.34 12.42 36 8 C29.4 8 22.8 8 16 8 C16 12.62 16 17.24 16 22 C18.97 22 21.94 22 25 22 C25 19.69 25 17.38 25 15 C27.97 15 30.94 15 34 15 C34 21.93 34 28.86 34 36 C31.03 36 28.06 36 25 36 C25 34.02 25 32.04 25 30 C22.03 30 19.06 30 16 30 C16 34.95 16 39.9 16 45 C22.93 45 29.86 45 37 45 C37 41.04 37 37.08 37 33 C39.97 33 42.94 33 46 33 C46 39.6 46 46.2 46 53 C30.82 53 15.64 53 0 53 C0 50.36 0 47.72 0 45 C2.31 45 4.62 45 7 45 C7 32.79 7 20.58 7 8 C4.69 8 2.38 8 0 8 C0 5.36 0 2.72 0 0 Z " fill="#F59D2D" transform="translate(555,157)"/>
<path d="M0 0 C3.3 0 6.6 0 10 0 C11.32 3.96 12.64 7.92 14 12 C15.65 8.04 17.3 4.08 19 0 C22.3 0 25.6 0 29 0 C29 1.65 29 3.3 29 5 C27.68 5 26.36 5 25 5 C25 11.27 25 17.54 25 24 C27.31 24 29.62 24 32 24 C32.17015625 23.38253906 32.3403125 22.76507813 32.515625 22.12890625 C34.22185424 16.1661796 36.33581117 10.59885369 39 5 C37.02 5 35.04 5 33 5 C33 3.35 33 1.7 33 0 C37.29 0 41.58 0 46 0 C48.97 7.59 51.94 15.18 55 23 C57.31 23.33 59.62 23.66 62 24 C62 17.73 62 11.46 62 5 C60.68 5 59.36 5 58 5 C58 3.35 58 1.7 58 0 C61.27066566 -0.08706892 64.54103365 -0.14041241 67.8125 -0.1875 C68.74126953 -0.21263672 69.67003906 -0.23777344 70.62695312 -0.26367188 C71.51962891 -0.27333984 72.41230469 -0.28300781 73.33203125 -0.29296875 C74.15421143 -0.3086792 74.9763916 -0.32438965 75.82348633 -0.34057617 C78.50833273 0.07954281 79.35183274 0.88420119 81 3 C81.8574846 5.64300634 82.12997724 8.22526853 82 11 C81.01268258 12.34275169 80.01405257 13.67732273 79 15 C79.6992082 17.91336749 80.66491731 20.32983461 82 23 C83.485 23.495 83.485 23.495 85 24 C85 25.65 85 27.3 85 29 C82.69 29 80.38 29 78 29 C77.49339844 28.06027344 77.49339844 28.06027344 76.9765625 27.1015625 C76.30753906 25.87566406 76.30753906 25.87566406 75.625 24.625 C75.18414062 23.81289062 74.74328125 23.00078125 74.2890625 22.1640625 C72.76221642 19.60081181 71.78328787 18.23037879 68.875 17.375 C68.25625 17.25125 67.6375 17.1275 67 17 C67 19.31 67 21.62 67 24 C68.32 24 69.64 24 71 24 C71 25.65 71 27.3 71 29 C62.42 29 53.84 29 45 29 C45 27.35 45 25.7 45 24 C46.32 24 47.64 24 49 24 C48.505 23.01 48.505 23.01 48 22 C45.64400765 21.53248212 45.64400765 21.53248212 42.9375 21.375 C42.01839844 21.30023438 41.09929688 21.22546875 40.15234375 21.1484375 C39.44207031 21.09945312 38.73179688 21.05046875 38 21 C38 21.66 38 22.32 38 23 C38.99 23.33 39.98 23.66 41 24 C41 25.65 41 27.3 41 29 C32.75 29 24.5 29 16 29 C16 27.35 16 25.7 16 24 C17.32 24 18.64 24 20 24 C19.67 21.03 19.34 18.06 19 15 C18.01 17.64 17.02 20.28 16 23 C14.68 23 13.36 23 12 23 C11.01 20.03 10.02 17.06 9 14 C8.67 17.3 8.34 20.6 8 24 C9.32 24 10.64 24 12 24 C12 25.65 12 27.3 12 29 C8.04 29 4.08 29 0 29 C0 27.35 0 25.7 0 24 C0.99 24 1.98 24 3 24 C3 17.73 3 11.46 3 5 C2.01 5 1.02 5 0 5 C0 3.35 0 1.7 0 0 Z M67 5 C67 7.31 67 9.62 67 12 C71.65052872 12.26932521 71.65052872 12.26932521 76 11 C76.042721 9.33388095 76.04063832 7.66617115 76 6 C75.01732141 4.79438816 75.01732141 4.79438816 73.15234375 4.90234375 C71.1015625 4.93489583 69.05078125 4.96744792 67 5 Z M43 9 C41.5393715 11.64738916 41 12.89448334 41 16 C42.65 16 44.3 16 46 16 C45.34 13.69 44.68 11.38 44 9 C43.67 9 43.34 9 43 9 Z " fill="#377EC1" transform="translate(7,228)"/>
<path d="M0 0 C4.6081187 -0.07436755 9.21588514 -0.12870394 13.82446289 -0.16479492 C15.39093107 -0.17984622 16.95735736 -0.20029207 18.52368164 -0.22631836 C20.78021606 -0.26286433 23.03619153 -0.27976261 25.29296875 -0.29296875 C25.98899704 -0.30845261 26.68502533 -0.32393646 27.40214539 -0.33988953 C31.80376787 -0.3414 34.48786775 0.33541838 38 3 C42.07762006 7.53068895 43.30177353 10.78895719 43.22265625 16.9375 C42.79377601 20.91028537 40.94943343 23.86067989 38.4375 26.875 C37 28 37 28 35 28 C35.5775 29.05960938 36.155 30.11921875 36.75 31.2109375 C37.50021788 32.59884058 38.25020601 33.98686787 39 35.375 C39.3815625 36.07367188 39.763125 36.77234375 40.15625 37.4921875 C43 42.7734375 43 42.7734375 43 45 C45.31 45 47.62 45 50 45 C50 47.64 50 50.28 50 53 C45.71 53 41.42 53 37 53 C36.40832031 51.81921875 35.81664062 50.6384375 35.20703125 49.421875 C34.40946312 47.86427137 33.61125204 46.30699684 32.8125 44.75 C32.42513672 43.97269531 32.03777344 43.19539063 31.63867188 42.39453125 C29.3425554 37.95410766 27.37715568 34.69363426 23 32 C19.310252 31.19777849 19.310252 31.19777849 16 31 C16 35.62 16 40.24 16 45 C18.31 45 20.62 45 23 45 C23 47.64 23 50.28 23 53 C15.41 53 7.82 53 0 53 C0 50.36 0 47.72 0 45 C2.31 45 4.62 45 7 45 C7 32.79 7 20.58 7 8 C4.69 8 2.38 8 0 8 C0 5.36 0 2.72 0 0 Z M16 8 C16 12.62 16 17.24 16 22 C24.60826765 22.76095873 24.60826765 22.76095873 32.375 19.9375 C34.48816666 16.11754488 34.17341001 14.14604871 33 10 C31.06029948 7.61607883 31.06029948 7.61607883 27.5234375 7.8046875 C26.14049032 7.81798507 24.75761346 7.84183768 23.375 7.875 C22.66859375 7.88402344 21.9621875 7.89304688 21.234375 7.90234375 C19.48943902 7.92592397 17.74467705 7.96179539 16 8 Z " fill="#F59D2D" transform="translate(448,157)"/>
<path d="M0 0 C0 -0.66 0 -1.32 0 -2 C6.15234375 -1.4140625 6.15234375 -1.4140625 8 -1 C9.32091272 1.64182543 8.73650073 2.77921915 8.0625 5.625 C7.0681395 10.21640954 6.82645419 14.31426324 7 19 C4.03 19 1.06 19 -2 19 C-2.42317708 16.75390625 -2.84635417 14.5078125 -3.26953125 12.26171875 C-4.10388439 9.67834725 -4.80642482 8.58845099 -7 7 C-11.16864083 6.20374276 -15.02662857 6.65526429 -19 8.0625 C-21.87717745 10.84976565 -21.92991794 13.07540453 -22 17 C-19.4808428 20.7787358 -17.23138321 21.14495365 -13 22 C-10.97962247 22.29480743 -8.9587521 22.5862497 -6.9375 22.875 C-2.07223739 23.66560517 1.28471939 24.57051021 5 28 C8.10614599 32.55568078 8.76407642 36.64070339 8 42 C6.15080845 47.43879866 2.62413162 50.77361725 -2 54 C-5.607888 55.20262933 -8.57218762 55.13247114 -12.375 55.125 C-13.68210937 55.12757813 -14.98921875 55.13015625 -16.3359375 55.1328125 C-20 55 -20 55 -22.8515625 54.3671875 C-23.91503906 54.18542969 -23.91503906 54.18542969 -25 54 C-25.66 54.66 -26.32 55.32 -27 56 C-28.9453125 55.7578125 -28.9453125 55.7578125 -31.125 55.125 C-31.84945312 54.92132813 -32.57390625 54.71765625 -33.3203125 54.5078125 C-33.87460937 54.34023437 -34.42890625 54.17265625 -35 54 C-34.91621094 53.38253906 -34.83242188 52.76507813 -34.74609375 52.12890625 C-34.03023073 46.17546317 -34.13869011 40.93346811 -35 35 C-30.545 34.505 -30.545 34.505 -26 34 C-25.608125 35.423125 -25.21625 36.84625 -24.8125 38.3125 C-23.79109274 41.2923854 -23.19132903 42.80867097 -20.9375 45.0625 C-15.53762492 46.78586439 -10.29558673 46.79642805 -4.9375 44.9375 C-2.14804729 42.14804729 -2.07022664 39.86246512 -2 36 C-4.26144309 33.73855691 -5.08216504 33.60907097 -8.140625 33.0703125 C-9.37619141 32.83634766 -9.37619141 32.83634766 -10.63671875 32.59765625 C-12.36241469 32.28553486 -14.08897438 31.97814756 -15.81640625 31.67578125 C-22.27862232 30.43961861 -26.95617655 28.92948028 -30.875 23.3125 C-32.52159003 18.46420712 -33.06005116 13.90659189 -31.2734375 9.0078125 C-25.14085571 -2.60919203 -11.52701562 -5.12311805 0 0 Z " fill="#F59D2D" transform="translate(645,157)"/>
<path d="M0 0 C7.26 0 14.52 0 22 0 C24.42422051 6.08601579 26.84636661 12.17277128 29.26318359 18.26171875 C30.08649939 20.33414731 30.91104029 22.40608961 31.73681641 24.47753906 C32.92149823 27.44991003 34.1018065 30.42398475 35.28125 33.3984375 C35.65310425 34.32868744 36.0249585 35.25893738 36.40808105 36.21737671 C36.74843384 37.07811798 37.08878662 37.93885925 37.43945312 38.82568359 C37.7414563 39.58513275 38.04345947 40.34458191 38.35461426 41.12704468 C39 43 39 43 39 45 C40.98 45 42.96 45 45 45 C45 47.64 45 50.28 45 53 C37.41 53 29.82 53 22 53 C22 50.36 22 47.72 22 45 C24.31 44.67 26.62 44.34 29 44 C28.34 41.69 27.68 39.38 27 37 C20.73 37 14.46 37 8 37 C7.34 39.64 6.68 42.28 6 45 C8.31 45 10.62 45 13 45 C13 47.64 13 50.28 13 53 C5.74 53 -1.52 53 -9 53 C-9 50.36 -9 47.72 -9 45 C-7.35 45 -5.7 45 -4 45 C-3.62230469 43.81535156 -3.24460937 42.63070312 -2.85546875 41.41015625 C-0.60327977 34.6535893 2.06358268 28.05576148 4.6875 21.4375 C5.20399393 20.12964332 5.72027159 18.82170121 6.23632812 17.51367188 C7.4887682 14.34160402 8.74337757 11.17041279 10 8 C6.7 8 3.4 8 0 8 C0 5.36 0 2.72 0 0 Z M17 13 C16.16280617 15.29032311 15.3301071 17.58210957 14.5 19.875 C14.26152344 20.52597656 14.02304687 21.17695313 13.77734375 21.84765625 C12.45122467 25.33457589 12.45122467 25.33457589 12 29 C15.63 29 19.26 29 23 29 C21.40615011 23.63886855 19.8106711 18.29273092 18 13 C17.67 13 17.34 13 17 13 Z " fill="#F59D2D" transform="translate(401,157)"/>
<path d="M0 0 C0.7916448 25.6737147 1.14205451 51.3143588 1 77 C-0.32 77 -1.64 77 -3 77 C-3.02426056 76.09584099 -3.02426056 76.09584099 -3.04901123 75.17341614 C-3.2212486 68.8946248 -3.4202559 62.61708596 -3.63476562 56.33959961 C-3.71128908 53.99736582 -3.781005 51.65489924 -3.84375 49.31225586 C-3.93517771 45.94300191 -4.05113572 42.57534651 -4.171875 39.20703125 C-4.19497742 38.16102249 -4.21807983 37.11501373 -4.24188232 36.03730774 C-4.47550357 30.15177564 -4.47550357 30.15177564 -6.93774414 24.88476562 C-11.18118657 21.00653956 -15.64485103 18.80207231 -21.4375 18.4375 C-26.61402228 18.68870039 -31.00156426 20.74826009 -35 24 C-38.73174278 28.64934686 -38.47192807 33.19819301 -38.51171875 38.89453125 C-38.52966995 39.84188644 -38.54762115 40.78924164 -38.56611633 41.76530457 C-38.62015087 44.78099157 -38.65409327 47.7965209 -38.6875 50.8125 C-38.7206791 52.86135003 -38.75516931 54.91017928 -38.79101562 56.95898438 C-38.87587356 61.97254238 -38.94271765 66.98605417 -39 72 C-40.65 71.67 -42.3 71.34 -44 71 C-44.02312737 62.93347826 -44.04091709 54.86697028 -44.05181217 46.80042362 C-44.05704014 43.05516963 -44.06413622 39.30993824 -44.07543945 35.56469727 C-44.08627141 31.95318313 -44.09227749 28.34169079 -44.09487724 24.73016167 C-44.09673094 23.34939671 -44.10035049 21.968633 -44.10573006 20.58787727 C-44.11294447 18.66024048 -44.11340809 16.73258193 -44.11352539 14.80493164 C-44.115746 13.70572891 -44.11796661 12.60652618 -44.12025452 11.47401428 C-44 9 -44 9 -43 8 C-41.22131096 7.59579522 -39.4307263 7.24368826 -37.63671875 6.9140625 C-36.52103516 6.70523438 -35.40535156 6.49640625 -34.25585938 6.28125 C-32.48952148 5.95640625 -32.48952148 5.95640625 -30.6875 5.625 C-22.91732558 4.1953938 -15.25658931 2.64750976 -7.63208008 0.56396484 C-5.00401028 0.00085927 -2.67845912 -0.10358849 0 0 Z " fill="#407BBC" transform="translate(224,132)"/>
<path d="M0 0 C14.85 0 29.7 0 45 0 C46.19166552 4.76666208 46.39094133 9.29636227 46.625 14.1875 C46.6765625 15.11498047 46.728125 16.04246094 46.78125 16.99804688 C46.82507813 17.87912109 46.86890625 18.76019531 46.9140625 19.66796875 C46.9548291 20.47516357 46.9955957 21.2823584 47.03759766 22.11401367 C47 24 47 24 46 25 C43.32941149 25.14115161 40.67567762 25.04247107 38 25 C37.16514796 19.26039225 36.90936593 13.80058027 37 8 C33.7 8 30.4 8 27 8 C27 20.21 27 32.42 27 45 C30.3 45 33.6 45 37 45 C37 47.64 37 50.28 37 53 C27.43 53 17.86 53 8 53 C8 50.36 8 47.72 8 45 C11.3 45 14.6 45 18 45 C18 32.79 18 20.58 18 8 C14.7 8 11.4 8 8 8 C8.01160156 8.89203125 8.02320313 9.7840625 8.03515625 10.703125 C8.04869141 12.45882812 8.04869141 12.45882812 8.0625 14.25 C8.07410156 15.41015625 8.08570313 16.5703125 8.09765625 17.765625 C8.01782092 20.40977128 7.78643778 22.49826091 7 25 C4.36 25 1.72 25 -1 25 C-3.02274647 16.90901413 -0.79070758 8.30242959 0 0 Z " fill="#F59D2D" transform="translate(503,157)"/>
<path d="M0 0 C12.39646202 2.25390219 12.39646202 2.25390219 18.09375 3.47265625 C19.30804688 3.73240234 20.52234375 3.99214844 21.7734375 4.25976562 C23.00320313 4.52466797 24.23296875 4.78957031 25.5 5.0625 C27.39105469 5.4656543 27.39105469 5.4656543 29.3203125 5.87695312 C31.12628906 6.26463867 31.12628906 6.26463867 32.96875 6.66015625 C34.59973633 7.01025757 34.59973633 7.01025757 36.26367188 7.36743164 C39 8 39 8 42 9 C42 28.8 42 48.6 42 69 C40.35 69 38.7 69 37 69 C37.00112793 67.794646 37.00225586 66.58929199 37.00341797 65.34741211 C36.99973288 60.85361249 36.95681436 56.36087893 36.90234375 51.86743164 C36.8842322 49.9267465 36.87660643 47.9859329 36.87988281 46.04516602 C36.88275392 43.24655712 36.84729643 40.45058585 36.8046875 37.65234375 C36.81378143 36.7916478 36.82287537 35.93095184 36.83224487 35.04417419 C36.69724148 29.38448861 35.43598494 26.43191587 31.51004028 22.33229065 C27.51269984 18.80548454 23.3455375 18.61353223 18.2109375 18.75 C13.76559067 19.25265406 10.95912782 21.14456167 7.6875 24.0625 C2.75684101 32.64549899 4.65939962 46.84873694 4.4375 56.625 C4.39422426 58.41016462 4.35060737 60.19532101 4.30664062 61.98046875 C4.2004911 66.32022748 4.09896742 70.66007178 4 75 C2.68 75 1.36 75 0 75 C0 50.25 0 25.5 0 0 Z " fill="#427BBA" transform="translate(242,133)"/>
<path d="M0 0 C0.04241723 2.33294775 0.04092937 4.66702567 0 7 C-1.67867719 8.67867719 -3.87855015 8.53597844 -6.18049622 8.87953186 C-7.30358688 9.04918961 -8.42667755 9.21884735 -9.58380127 9.39364624 C-11.44848053 9.66877548 -11.44848053 9.66877548 -13.35083008 9.94946289 C-15.30187904 10.24228905 -15.30187904 10.24228905 -17.29234314 10.54103088 C-20.87038254 11.07787051 -24.44918496 11.60945521 -28.02816606 12.13997579 C-31.76898166 12.69521608 -35.50916319 13.25469681 -39.24943542 13.81358337 C-45.53475709 14.75207856 -51.82056984 15.68722683 -58.10668945 16.62036133 C-65.37530546 17.69937776 -72.64316251 18.78339118 -79.91062242 19.87016493 C-86.89568845 20.91461269 -93.88124387 21.95575018 -100.86704063 22.99529839 C-103.8419805 23.43804069 -106.81675051 23.88190017 -109.79139137 24.3266468 C-113.29655479 24.85054233 -116.80213915 25.37152514 -120.30806923 25.89026451 C-122.2088719 26.17220175 -124.10924926 26.4570018 -126.00961304 26.74188232 C-127.14116318 26.90872025 -128.27271332 27.07555817 -129.43855286 27.24745178 C-130.91331699 27.46673387 -130.91331699 27.46673387 -132.41787434 27.6904459 C-135 28 -135 28 -139 28 C-139.09765625 21.84765625 -139.09765625 21.84765625 -139 20 C-137.3137834 18.3137834 -135.08705724 18.48329058 -132.77481079 18.15843201 C-131.64186081 17.99718842 -130.50891083 17.83594482 -129.34162903 17.66981506 C-128.08758774 17.49574631 -126.83354645 17.32167755 -125.54150391 17.14233398 C-124.21614131 16.95535293 -122.89083013 16.76800714 -121.56556702 16.58032227 C-117.95657164 16.07033251 -114.34685427 15.56563108 -110.73697329 15.06195331 C-106.96499713 14.53487446 -103.19364505 14.00336644 -99.42221069 13.47242737 C-93.0855849 12.58104276 -86.74850824 11.69292318 -80.41113281 10.80688477 C-73.08012103 9.78189989 -65.74973277 8.75255106 -58.41968787 7.72067589 C-50.62547761 6.62350117 -42.83082693 5.52948132 -35.03604078 4.43640637 C-32.78665763 4.12075628 -30.53735751 3.80452006 -28.28807449 3.48815727 C-24.75406313 2.99125935 -21.21976199 2.49647546 -17.68522453 2.00333405 C-15.76643425 1.73514115 -13.84792707 1.46492529 -11.9294281 1.19465637 C-10.79083847 1.0362326 -9.65224884 0.87780884 -8.47915649 0.71458435 C-7.48768427 0.57577064 -6.49621204 0.43695692 -5.47469521 0.29393673 C-3 0 -3 0 0 0 Z " fill="#3A7FBB" transform="translate(370,197)"/>
<path d="M0 0 C0 14.52 0 29.04 0 44 C-12.87 42.515 -12.87 42.515 -26 41 C-26 29.12 -26 17.24 -26 5 C-22.82375 4.175 -19.6475 3.35 -16.375 2.5 C-15.3854834 2.23896484 -14.3959668 1.97792969 -13.37646484 1.70898438 C-12.57934082 1.50595703 -11.7822168 1.30292969 -10.9609375 1.09375 C-9.75123291 0.77954102 -9.75123291 0.77954102 -8.51708984 0.45898438 C-6 0 -6 0 0 0 Z " fill="#BC5A1A" transform="translate(124,152)"/>
<path d="M0 0 C12.21 0 24.42 0 37 0 C37.495 7.92 37.495 7.92 38 16 C35.36 16 32.72 16 30 16 C30 12.7 30 9.4 30 6 C24.39 6 18.78 6 13 6 C13 9.63 13 13.26 13 17 C15.64 17 18.28 17 21 17 C21 15.35 21 13.7 21 12 C23.31 12 25.62 12 28 12 C28 17.61 28 23.22 28 29 C25.69 29 23.38 29 21 29 C21 27.02 21 25.04 21 23 C18.36 23 15.72 23 13 23 C13 27.29 13 31.58 13 36 C18.61 36 24.22 36 30 36 C30.33 32.7 30.66 29.4 31 26 C33.31 26 35.62 26 38 26 C38 31.28 38 36.56 38 42 C25.46 42 12.92 42 0 42 C0 40.02 0 38.04 0 36 C1.65 36 3.3 36 5 36 C5 26.1 5 16.2 5 6 C3.35 6 1.7 6 0 6 C0 4.02 0 2.04 0 0 Z " fill="#D60D82" transform="translate(439,108)"/>
<path d="M0 0 C4.56237931 -0.08719631 9.12454386 -0.14045922 13.6875 -0.1875 C14.98107422 -0.21263672 16.27464844 -0.23777344 17.60742188 -0.26367188 C18.85458984 -0.27333984 20.10175781 -0.28300781 21.38671875 -0.29296875 C22.53358154 -0.3086792 23.68044434 -0.32438965 24.86206055 -0.34057617 C28.34610738 0.03756475 30.16683696 0.9926906 33 3 C33.5775 3.391875 34.155 3.78375 34.75 4.1875 C36.80643985 7.16933779 37.14455879 10.46175145 37 14 C35.5625 17 35.5625 17 34 19 C34.639375 19.598125 35.27875 20.19625 35.9375 20.8125 C39.09689182 24.16337011 39.40168462 27.39754211 39.3515625 31.93359375 C38.71315462 35.68601338 36.72210538 37.40162668 34 40 C30.42498303 42.37028247 27.26705334 42.23107672 23.046875 42.1953125 C22.38665344 42.1924826 21.72643188 42.18965271 21.04620361 42.18673706 C18.94728103 42.17558415 16.84879258 42.15048946 14.75 42.125 C13.32292285 42.11496384 11.89583898 42.1058391 10.46875 42.09765625 C6.97902672 42.07566111 3.48955577 42.04116536 0 42 C0 40.02 0 38.04 0 36 C1.65 36 3.3 36 5 36 C5 26.1 5 16.2 5 6 C3.35 6 1.7 6 0 6 C0 4.02 0 2.04 0 0 Z M13 6 C13 9.63 13 13.26 13 17 C14.7325 17.04125 16.465 17.0825 18.25 17.125 C19.22453125 17.14820313 20.1990625 17.17140625 21.203125 17.1953125 C24.06459964 16.99548885 25.66272429 16.64474957 28 15 C28.81584568 11.94091587 28.81584568 11.94091587 29 9 C24.06897898 4.91915502 19.08407082 5.78009383 13 6 Z M13 23 C13 27.29 13 31.58 13 36 C16.0628125 36.0928125 16.0628125 36.0928125 19.1875 36.1875 C20.91033203 36.23970703 20.91033203 36.23970703 22.66796875 36.29296875 C26.31490889 35.97231165 28.1484743 35.26537875 31 33 C31.75 30 31.75 30 31 27 C28.1413541 24.1413541 25.3547317 23.04901345 21.30078125 22.90234375 C20.31464844 22.91394531 19.32851563 22.92554688 18.3125 22.9375 C16.559375 22.958125 14.80625 22.97875 13 23 Z " fill="#D60D82" transform="translate(394,108)"/>
<path d="M0 0 C4.29 0 8.58 0 13 0 C17.455 11.385 17.455 11.385 22 23 C24.31 23.33 26.62 23.66 29 24 C29 17.73 29 11.46 29 5 C27.68 5 26.36 5 25 5 C25 3.35 25 1.7 25 0 C28.3 0 31.6 0 35 0 C37.97 5.28 40.94 10.56 44 16 C44.33 12.37 44.66 8.74 45 5 C43.68 5 42.36 5 41 5 C41 3.35 41 1.7 41 0 C45.29 0 49.58 0 54 0 C54 1.65 54 3.3 54 5 C53.01 5 52.02 5 51 5 C51 13.25 51 21.5 51 30 C49.02 30 47.04 30 45 30 C41.7 24.06 38.4 18.12 35 12 C34.67 15.96 34.34 19.92 34 24 C35.65 24 37.3 24 39 24 C39 25.65 39 27.3 39 29 C30.09 29 21.18 29 12 29 C12 27.35 12 25.7 12 24 C13.32 24 14.64 24 16 24 C15.67 23.34 15.34 22.68 15 22 C12.64400765 21.53248212 12.64400765 21.53248212 9.9375 21.375 C9.01839844 21.30023438 8.09929687 21.22546875 7.15234375 21.1484375 C6.44207031 21.09945312 5.73179687 21.05046875 5 21 C5 21.66 5 22.32 5 23 C5.99 23.33 6.98 23.66 8 24 C8 25.65 8 27.3 8 29 C4.04 29 0.08 29 -4 29 C-4 27.35 -4 25.7 -4 24 C-3.01 24 -2.02 24 -1 24 C-0.74476563 23.07380859 -0.74476563 23.07380859 -0.484375 22.12890625 C1.22185424 16.1661796 3.33581117 10.59885369 6 5 C4.02 5 2.04 5 0 5 C0 3.35 0 1.7 0 0 Z M10 9 C8.5393715 11.64738916 8 12.89448334 8 16 C9.65 16 11.3 16 13 16 C12.34 13.69 11.68 11.38 11 9 C10.67 9 10.34 9 10 9 Z " fill="#377EC1" transform="translate(267,228)"/>
<path d="M0 0 C4.29 0 8.58 0 13 0 C17.455 11.385 17.455 11.385 22 23 C24.31 23.33 26.62 23.66 29 24 C29 17.73 29 11.46 29 5 C27.68 5 26.36 5 25 5 C25 3.35 25 1.7 25 0 C28.3 0 31.6 0 35 0 C37.97 5.28 40.94 10.56 44 16 C44.33 12.37 44.66 8.74 45 5 C43.68 5 42.36 5 41 5 C41 3.35 41 1.7 41 0 C45.29 0 49.58 0 54 0 C54 1.65 54 3.3 54 5 C53.01 5 52.02 5 51 5 C51 13.25 51 21.5 51 30 C49.02 30 47.04 30 45 30 C41.7 24.06 38.4 18.12 35 12 C34.67 15.96 34.34 19.92 34 24 C35.65 24 37.3 24 39 24 C39 25.65 39 27.3 39 29 C30.09 29 21.18 29 12 29 C12 27.35 12 25.7 12 24 C13.32 24 14.64 24 16 24 C15.67 23.34 15.34 22.68 15 22 C12.64400765 21.53248212 12.64400765 21.53248212 9.9375 21.375 C9.01839844 21.30023438 8.09929687 21.22546875 7.15234375 21.1484375 C6.44207031 21.09945312 5.73179687 21.05046875 5 21 C5 21.66 5 22.32 5 23 C5.99 23.33 6.98 23.66 8 24 C8 25.65 8 27.3 8 29 C4.04 29 0.08 29 -4 29 C-4 27.35 -4 25.7 -4 24 C-3.01 24 -2.02 24 -1 24 C-0.74476562 23.07380859 -0.74476562 23.07380859 -0.484375 22.12890625 C1.22185424 16.1661796 3.33581117 10.59885369 6 5 C4.02 5 2.04 5 0 5 C0 3.35 0 1.7 0 0 Z M10 9 C8.5393715 11.64738916 8 12.89448334 8 16 C9.65 16 11.3 16 13 16 C12.34 13.69 11.68 11.38 11 9 C10.67 9 10.34 9 10 9 Z " fill="#377EC1" transform="translate(125,228)"/>
<path d="M0 0 C6.03755092 0.67083899 11.32020276 1.4259742 17.0625 3.0625 C17.73732422 3.24876953 18.41214844 3.43503906 19.10742188 3.62695312 C20.73998687 4.07851366 22.37025998 4.53834769 24 5 C24.0246519 9.82380802 24.04283693 14.64757967 24.05493164 19.47143555 C24.05997174 21.11369464 24.06680378 22.75594923 24.07543945 24.39819336 C24.08751926 26.75375479 24.09323139 29.10925709 24.09765625 31.46484375 C24.10281754 32.20339096 24.10797882 32.94193817 24.11329651 33.7028656 C24.1134925 35.46898088 24.06194719 37.23497146 24 39 C22.32859395 40.67140605 20.16494332 40.46560822 17.87109375 40.75390625 C16.93966553 40.8732251 16.0082373 40.99254395 15.04858398 41.11547852 C13.85692627 41.26299561 12.66526855 41.4105127 11.4375 41.5625 C5.7759375 42.2740625 5.7759375 42.2740625 0 43 C0 28.81 0 14.62 0 0 Z " fill="#BC5919" transform="translate(334,152)"/>
<path d="M0 0 C2.37536547 0 4.75153255 -0.0300613 7.125 -0.125 C10 0 10 0 12 2 C11.67 2.99 11.34 3.98 11 5 C10.9314505 6.89470816 10.91519628 8.7916834 10.9375 10.6875 C10.94652344 11.68136719 10.95554687 12.67523438 10.96484375 13.69921875 C10.97644531 14.45847656 10.98804688 15.21773437 11 16 C7.04 16.495 7.04 16.495 3 17 C1.515 12.545 1.515 12.545 0 8 C-5.56274117 6.8866909 -5.56274117 6.8866909 -10.9375 8.125 C-13.40216549 10.36560499 -13.73495227 11.73107795 -14 15 C-10.14733108 17.64511597 -7.12139876 18.48171229 -2.5 19 C2.11178061 19.51720904 5.1892939 20.29761416 9 23 C11.71935679 26.49631588 11.5246189 30.76074086 11 35 C9.48029759 38.93334742 7.11582479 41.28406011 3.37109375 43.28125 C-2.5964783 45.090201 -10.1010247 44.9663251 -16 43 C-16.66 43.66 -17.32 44.32 -18 45 C-19.98 44.34 -21.96 43.68 -24 43 C-24.495 35.575 -24.495 35.575 -25 28 C-21.535 27.505 -21.535 27.505 -18 27 C-17.54625 28.11375 -17.0925 29.2275 -16.625 30.375 C-15.27534014 33.96199008 -15.27534014 33.96199008 -13 36 C-8.3906851 37.22607776 -4.88099979 37.35549114 -0.4375 35.5625 C0.366875 35.046875 1.17125 34.53125 2 34 C2 32.35 2 30.7 2 29 C-1.50946243 27.46778905 -4.71778575 26.62027036 -8.5 26.0625 C-13.65113457 25.16935973 -16.90173775 23.88120064 -20.8125 20.375 C-22.67905597 16.64188807 -22.5202394 13.08864203 -22 9 C-20.47661814 4.96751862 -18.05583737 2.74805771 -14.234375 0.71484375 C-9.62006075 -0.76141413 -4.7803479 -0.2427257 0 0 Z " fill="#D60D82" transform="translate(643,107)"/>
<path d="M0 0 C6.27 0 12.54 0 19 0 C20.99884518 4.64272587 22.99432579 9.28661002 24.98144531 13.93432617 C25.65853845 15.51523802 26.33756476 17.09532335 27.01855469 18.67456055 C27.99662605 20.94365758 28.96772426 23.21562865 29.9375 25.48828125 C30.24373291 26.19463211 30.54996582 26.90098297 30.86547852 27.6287384 C32.11978564 30.58430547 33 32.75435304 33 36 C34.65 36 36.3 36 38 36 C38 37.98 38 39.96 38 42 C31.73 42 25.46 42 19 42 C19 40.02 19 38.04 19 36 C20.98 36 22.96 36 25 36 C24.34 33.69 23.68 31.38 23 29 C17.72 29 12.44 29 7 29 C6.505 31.475 6.505 31.475 6 34 C5.67 34.66 5.34 35.32 5 36 C6.98 36 8.96 36 11 36 C11 37.98 11 39.96 11 42 C5.06 42 -0.88 42 -7 42 C-7 40.02 -7 38.04 -7 36 C-5.68 36 -4.36 36 -3 36 C-2.40251953 34.11474609 -2.40251953 34.11474609 -1.79296875 32.19140625 C0.05879955 26.63610136 2.34708318 21.30142181 4.6875 15.9375 C5.10322266 14.97650391 5.51894531 14.01550781 5.94726562 13.02539062 C6.96151487 10.68212514 7.97914002 8.34039113 9 6 C6.03 6 3.06 6 0 6 C0 4.02 0 2.04 0 0 Z M15 11 C14.32645501 12.43429001 13.66140299 13.87257057 13 15.3125 C12.62875 16.11300781 12.2575 16.91351563 11.875 17.73828125 C10.81959333 20.06213959 10.81959333 20.06213959 11 23 C13.97 23 16.94 23 20 23 C18.68 19.04 17.36 15.08 16 11 C15.67 11 15.34 11 15 11 Z " fill="#D60D82" transform="translate(576,108)"/>
<path d="M0 0 C6.0290912 4.27165736 11.60837013 9.24602477 14.80078125 15.984375 C14.0644043 16.07001709 13.32802734 16.15565918 12.56933594 16.24389648 C9.22949656 16.63386039 5.89014069 17.02782326 2.55078125 17.421875 C0.81248047 17.62393555 0.81248047 17.62393555 -0.9609375 17.83007812 C-2.07597656 17.96220703 -3.19101562 18.09433594 -4.33984375 18.23046875 C-5.36625977 18.35091553 -6.39267578 18.4713623 -7.45019531 18.59545898 C-9.77036575 18.92370335 -11.93424761 19.40744271 -14.19921875 19.984375 C-27.66789409 20.9742415 -27.66789409 20.9742415 -31.94921875 18.109375 C-36.18694881 14.10707439 -36.18694881 14.10707439 -36.57421875 10.234375 C-36.4293221 5.79087778 -35.23772083 3.32672729 -32.19921875 -0.015625 C-23.18204576 -7.47971164 -9.46333805 -5.3783518 0 0 Z " fill="#B75199" transform="translate(40.19921875,155.015625)"/>
<path d="M0 0 C0.66 0 1.32 0 2 0 C2.13535156 0.969375 2.27070312 1.93875 2.41015625 2.9375 C5.63014354 23.77425554 15.28773588 40.90128489 31 55 C31.99 55.495 31.99 55.495 33 56 C33.31241371 58.54941373 33.51303421 61.00361513 33.625 63.5625 C33.68300781 64.62887695 33.68300781 64.62887695 33.7421875 65.71679688 C33.83671783 67.47742425 33.91945817 69.23867728 34 71 C28.44610929 69.0185592 24.53492135 65.669972 20 62 C19.01 61.278125 18.02 60.55625 17 59.8125 C6.64013188 51.01094073 1.03627921 38.64874378 -2.3125 25.8125 C-2.48434814 25.15926758 -2.65619629 24.50603516 -2.83325195 23.83300781 C-4.37272167 17.45003679 -4.86225976 11.32356843 -2.5625 5.0625 C-2.29566406 4.31097656 -2.02882812 3.55945313 -1.75390625 2.78515625 C-1 1 -1 1 0 0 Z " fill="#F9BC1D" transform="translate(35,97)"/>
<path d="M0 0 C7.92 0 15.84 0 24 0 C24 1.98 24 3.96 24 6 C21.03 6 18.06 6 15 6 C15 15.9 15 25.8 15 36 C20.28 36 25.56 36 31 36 C31.33 31.05 31.66 26.1 32 21 C34.64 21.33 37.28 21.66 40 22 C39.67 28.6 39.34 35.2 39 42 C26.13 42 13.26 42 0 42 C0 40.02 0 38.04 0 36 C2.31 36 4.62 36 7 36 C7 26.1 7 16.2 7 6 C4.69 6 2.38 6 0 6 C0 4.02 0 2.04 0 0 Z " fill="#D60D82" transform="translate(528,108)"/>
<path d="M0 0 C7.92 0 15.84 0 24 0 C24 1.98 24 3.96 24 6 C21.03 6 18.06 6 15 6 C15 15.9 15 25.8 15 36 C20.28 36 25.56 36 31 36 C31.33 31.05 31.66 26.1 32 21 C34.64 21.33 37.28 21.66 40 22 C39.67 28.6 39.34 35.2 39 42 C26.13 42 13.26 42 0 42 C0 40.02 0 38.04 0 36 C2.31 36 4.62 36 7 36 C7 26.1 7 16.2 7 6 C4.69 6 2.38 6 0 6 C0 4.02 0 2.04 0 0 Z " fill="#D60D82" transform="translate(483,108)"/>
<path d="M0 0 C0 19.14 0 38.28 0 58 C-0.66 58 -1.32 58 -2 58 C-2.78747368 52.98938118 -3.07819103 48.12489838 -3.140625 43.05078125 C-3.15996094 41.79072266 -3.17929688 40.53066406 -3.19921875 39.23242188 C-3.2332227 36.60757883 -3.2513136 33.98248389 -3.25390625 31.35742188 C-3.27839844 30.10123047 -3.30289063 28.84503906 -3.328125 27.55078125 C-3.3374707 26.41294189 -3.34681641 25.27510254 -3.35644531 24.1027832 C-4.19191082 20.07473651 -5.88246854 18.59473555 -9 16 C-12.72342486 13.99507892 -15.79834723 13.48551191 -20 14 C-23.22132295 15.73083907 -23.22132295 15.73083907 -26 18 C-26.54245361 18.38518799 -27.08490723 18.77037598 -27.64379883 19.16723633 C-29.75707375 22.02310578 -29.48075799 25.08927347 -29.51171875 28.51171875 C-29.53864555 29.60405571 -29.53864555 29.60405571 -29.56611633 30.71846008 C-29.62024213 33.04141471 -29.6541208 35.36416366 -29.6875 37.6875 C-29.72067125 39.26370051 -29.75516073 40.83987388 -29.79101562 42.41601562 C-29.8759693 46.27719536 -29.94276876 50.13831387 -30 54 C-31.32 54 -32.64 54 -34 54 C-34 38.16 -34 22.32 -34 6 C-20.24390244 2.56097561 -20.24390244 2.56097561 -13.625 1.3125 C-12.63693359 1.11817383 -12.63693359 1.11817383 -11.62890625 0.91992188 C-7.59173258 0.1614469 -4.18195478 0 0 0 Z " fill="#427BBB" transform="translate(168,143)"/>
<path d="M0 0 C11.25 1.125 11.25 1.125 16.0078125 2.19140625 C16.9167627 2.39193604 17.82571289 2.59246582 18.76220703 2.79907227 C19.87192871 3.05100342 20.98165039 3.30293457 22.125 3.5625 C27.508125 4.7690625 27.508125 4.7690625 33 6 C33 21.18 33 36.36 33 52 C31.68 52 30.36 52 29 52 C28.9906543 51.08710205 28.98130859 50.1742041 28.97167969 49.23364258 C28.92754819 45.83183952 28.865886 42.43127833 28.79248047 39.0300293 C28.76433389 37.5607455 28.74308791 36.09131205 28.72900391 34.62182617 C28.7074847 32.50361886 28.66079666 30.38719847 28.609375 28.26953125 C28.58842773 26.99698486 28.56748047 25.72443848 28.54589844 24.41333008 C27.8201792 19.87563747 25.88683054 17.4151229 22.25 14.6875 C18.80156553 13.63381169 15.53623666 13.4298582 12 14 C7.74333301 16.24162425 7.74333301 16.24162425 5 20 C4.77332577 22.69438737 4.59886847 25.37103398 4.46484375 28.0703125 C4.42186661 28.86654022 4.37888947 29.66276794 4.33460999 30.48312378 C4.19808674 33.03021502 4.06772493 35.57757972 3.9375 38.125 C3.84610826 39.85028193 3.75431645 41.57554271 3.66210938 43.30078125 C3.43676046 47.53362266 3.21693747 51.7667195 3 56 C2.01 56 1.02 56 0 56 C0 37.52 0 19.04 0 0 Z " fill="#4C7DB6" transform="translate(292,144)"/>
<path d="M0 0 C12.21837068 9.39021529 20.60782952 21.9098995 24.01953125 37.046875 C24.29923402 40.74616964 24.28165163 44.34806525 24.01953125 48.046875 C23.35953125 48.046875 22.69953125 48.046875 22.01953125 48.046875 C21.72820312 46.94730469 21.436875 45.84773438 21.13671875 44.71484375 C15.98006922 25.85770514 8.06188074 12.91189716 -9.20654297 3.01318359 C-19.05246763 -2.35017586 -28.78294124 -5.36030782 -39.98046875 -4.953125 C-39.98046875 -3.633125 -39.98046875 -2.313125 -39.98046875 -0.953125 C-42.62046875 -0.953125 -45.26046875 -0.953125 -47.98046875 -0.953125 C-48.31046875 -2.273125 -48.64046875 -3.593125 -48.98046875 -4.953125 C-51.95046875 -5.448125 -51.95046875 -5.448125 -54.98046875 -5.953125 C-54.65046875 -7.273125 -54.32046875 -8.593125 -53.98046875 -9.953125 C-35.60687886 -14.92375801 -15.77986354 -10.34067074 0 0 Z " fill="#FFED00" transform="translate(316.98046875,54.953125)"/>
<path d="M0 0 C3.3 0 6.6 0 10 0 C12.97 5.28 15.94 10.56 19 16 C19.33 12.37 19.66 8.74 20 5 C18.68 5 17.36 5 16 5 C16 3.35 16 1.7 16 0 C20.29 0 24.58 0 29 0 C29 1.65 29 3.3 29 5 C28.01 5 27.02 5 26 5 C26 13.25 26 21.5 26 30 C24.02 30 22.04 30 20 30 C16.7 24.06 13.4 18.12 10 12 C9.67 15.96 9.34 19.92 9 24 C10.65 24 12.3 24 14 24 C14 25.65 14 27.3 14 29 C9.38 29 4.76 29 0 29 C0 27.35 0 25.7 0 24 C1.32 24 2.64 24 4 24 C4 17.73 4 11.46 4 5 C2.68 5 1.36 5 0 5 C0 3.35 0 1.7 0 0 Z " fill="#377EC1" transform="translate(377,228)"/>
<path d="M0 0 C7.49958648 3.73062905 11.01508862 11.54902803 14 19 C14 19.66 14 20.32 14 21 C9.66933052 21.38012146 5.33747694 21.70763968 1 22 C0.04996094 22.06832031 -0.90007813 22.13664062 -1.87890625 22.20703125 C-6.06112421 22.37942802 -8.56819161 22.19627654 -12.4375 20.4375 C-15.56621473 17.46140551 -16.78706985 15.13823226 -18 11 C-17.92553621 7.20234668 -17.50588432 5.60379742 -15.0625 2.6875 C-10.53818799 -1.01420983 -5.62910246 -0.88359389 0 0 Z " fill="#4CAFE3" transform="translate(18,119)"/>
<path d="M0 0 C8.25 0 16.5 0 25 0 C25 3.63 25 7.26 25 11 C23.35 11 21.7 11 20 11 C20 9.02 20 7.04 20 5 C16.37 5 12.74 5 9 5 C9 7.31 9 9.62 9 12 C10.65 12 12.3 12 14 12 C14 10.68 14 9.36 14 8 C15.65 8 17.3 8 19 8 C19 11.96 19 15.92 19 20 C17.35 20 15.7 20 14 20 C14 19.01 14 18.02 14 17 C12.35 17 10.7 17 9 17 C9 19.31 9 21.62 9 24 C12.63 24 16.26 24 20 24 C20 22.02 20 20.04 20 18 C21.65 18 23.3 18 25 18 C25 21.63 25 25.26 25 29 C16.75 29 8.5 29 0 29 C0 27.35 0 25.7 0 24 C1.32 24 2.64 24 4 24 C4 17.73 4 11.46 4 5 C2.68 5 1.36 5 0 5 C0 3.35 0 1.7 0 0 Z " fill="#377EC1" transform="translate(549,228)"/>
<path d="M0 0 C3.27066566 -0.08706892 6.54103365 -0.14041241 9.8125 -0.1875 C10.74126953 -0.21263672 11.67003906 -0.23777344 12.62695312 -0.26367188 C13.9659668 -0.27817383 13.9659668 -0.27817383 15.33203125 -0.29296875 C16.56530151 -0.31653442 16.56530151 -0.31653442 17.82348633 -0.34057617 C20.50833273 0.07954281 21.35183274 0.88420119 23 3 C23.8574846 5.64300634 24.12997724 8.22526853 24 11 C23.01268258 12.34275169 22.01405257 13.67732273 21 15 C21.6992082 17.91336749 22.66491731 20.32983461 24 23 C24.99 23.33 25.98 23.66 27 24 C27 25.65 27 27.3 27 29 C24.69 29 22.38 29 20 29 C19.66226562 28.37351562 19.32453125 27.74703125 18.9765625 27.1015625 C18.53054688 26.28429687 18.08453125 25.46703125 17.625 24.625 C17.18414062 23.81289062 16.74328125 23.00078125 16.2890625 22.1640625 C14.76221642 19.60081181 13.78328787 18.23037879 10.875 17.375 C10.25625 17.25125 9.6375 17.1275 9 17 C9 19.31 9 21.62 9 24 C10.32 24 11.64 24 13 24 C13 25.65 13 27.3 13 29 C8.71 29 4.42 29 0 29 C0 27.35 0 25.7 0 24 C1.32 24 2.64 24 4 24 C4 17.73 4 11.46 4 5 C2.68 5 1.36 5 0 5 C0 3.35 0 1.7 0 0 Z M9 5 C9 7.31 9 9.62 9 12 C13.65052872 12.26932521 13.65052872 12.26932521 18 11 C18.042721 9.33388095 18.04063832 7.66617115 18 6 C17.01732141 4.79438816 17.01732141 4.79438816 15.15234375 4.90234375 C13.1015625 4.93489583 11.05078125 4.96744792 9 5 Z " fill="#377EC1" transform="translate(464,228)"/>
<path d="M0 0 C0.33 3.63 0.66 7.26 1 11 C-0.98 11.33 -2.96 11.66 -5 12 C-5.309375 11.030625 -5.61875 10.06125 -5.9375 9.0625 C-6.69523342 6.15934208 -6.69523342 6.15934208 -8 5 C-11.41600593 4.58307147 -11.41600593 4.58307147 -15 5 C-17.21654265 7.18095596 -17.93556162 8.57041083 -18.3984375 11.65625 C-18.39070313 12.5946875 -18.38296875 13.533125 -18.375 14.5 C-18.38273437 15.4384375 -18.39046875 16.376875 -18.3984375 17.34375 C-17.92918622 20.47209185 -17.31870686 21.84727432 -15 24 C-12.49119384 24.48261667 -12.49119384 24.48261667 -9.8125 24.25 C-8.46091797 24.19585937 -8.46091797 24.19585937 -7.08203125 24.140625 C-6.39496094 24.09421875 -5.70789063 24.0478125 -5 24 C-5 22.68 -5 21.36 -5 20 C-7.31 20 -9.62 20 -12 20 C-12 18.35 -12 16.7 -12 15 C-7.38 15 -2.76 15 2 15 C2 16.65 2 18.3 2 20 C1.34 20 0.68 20 0 20 C0 22.64 0 25.28 0 28 C-6.08117468 30.76517182 -12.57918279 31.16453352 -18.9375 29 C-23.10763012 24.95623746 -25.20838281 20.31223229 -25.5 14.5 C-25.20714501 8.66309709 -23.12850769 3.94606418 -18.8125 0 C-12.72255614 -2.16531337 -6.2479928 -1.06348814 0 0 Z " fill="#377EC1" transform="translate(517,228)"/>
<path d="M0 0 C1.05960937 0.00676758 1.05960937 0.00676758 2.140625 0.01367188 C3.88545275 0.02546125 5.630237 0.04339676 7.375 0.0625 C8.54746771 4.16152098 8.44576062 7.81686258 8.375 12.0625 C6.395 12.0625 4.415 12.0625 2.375 12.0625 C1.715 10.0825 1.055 8.1025 0.375 6.0625 C-2.265 6.0625 -4.905 6.0625 -7.625 6.0625 C-7.625 8.0425 -7.625 10.0225 -7.625 12.0625 C-6.88894531 12.14886719 -6.15289062 12.23523438 -5.39453125 12.32421875 C-0.74928118 12.99308567 2.65516659 13.59183969 6.625 16.1875 C8.69214416 19.58352254 8.72859382 21.26306647 8.2578125 25.09765625 C6.87891056 28.16662828 5.24867303 29.3321982 2.375 31.0625 C-0.52725183 31.37509432 -2.99825809 31.49141492 -5.875 31.375 C-6.97328125 31.36049805 -6.97328125 31.36049805 -8.09375 31.34570312 C-13.45599279 31.23150721 -13.45599279 31.23150721 -14.625 30.0625 C-14.85787008 28.38066052 -15.03764166 26.6912584 -15.1875 25 C-15.27128906 24.08089844 -15.35507812 23.16179687 -15.44140625 22.21484375 C-15.53228516 21.14943359 -15.53228516 21.14943359 -15.625 20.0625 C-13.975 19.7325 -12.325 19.4025 -10.625 19.0625 C-10.33625 19.866875 -10.0475 20.67125 -9.75 21.5 C-8.89237432 24.1951468 -8.89237432 24.1951468 -6.625 25.0625 C-5.08476004 25.13200541 -3.54165012 25.14702357 -2 25.125 C-1.18273437 25.11597656 -0.36546875 25.10695312 0.4765625 25.09765625 C1.10304688 25.08605469 1.72953125 25.07445312 2.375 25.0625 C1.88 22.5875 1.88 22.5875 1.375 20.0625 C0.62734375 19.89234375 -0.1203125 19.7221875 -0.890625 19.546875 C-1.87546875 19.30453125 -2.8603125 19.0621875 -3.875 18.8125 C-4.84953125 18.58046875 -5.8240625 18.3484375 -6.828125 18.109375 C-10.00087016 16.92181117 -11.52780138 15.70359827 -13.625 13.0625 C-14.24484499 8.80106568 -14.11811964 6.81861678 -11.75 3.1875 C-8.07310633 -0.48939367 -4.93571421 -0.05919214 0 0 Z " fill="#377EC1" transform="translate(337.625,226.9375)"/>
<path d="M0 0 C1.05960938 0.00676758 1.05960938 0.00676758 2.140625 0.01367188 C3.88545275 0.02546125 5.630237 0.04339676 7.375 0.0625 C8.54746771 4.16152098 8.44576062 7.81686258 8.375 12.0625 C6.395 12.0625 4.415 12.0625 2.375 12.0625 C1.715 10.0825 1.055 8.1025 0.375 6.0625 C-2.265 6.0625 -4.905 6.0625 -7.625 6.0625 C-7.625 8.0425 -7.625 10.0225 -7.625 12.0625 C-6.88894531 12.14886719 -6.15289062 12.23523438 -5.39453125 12.32421875 C-0.74928118 12.99308567 2.65516659 13.59183969 6.625 16.1875 C8.69214416 19.58352254 8.72859382 21.26306647 8.2578125 25.09765625 C6.87891056 28.16662828 5.24867303 29.3321982 2.375 31.0625 C-0.52725183 31.37509432 -2.99825809 31.49141492 -5.875 31.375 C-6.97328125 31.36049805 -6.97328125 31.36049805 -8.09375 31.34570312 C-13.45599279 31.23150721 -13.45599279 31.23150721 -14.625 30.0625 C-14.85787008 28.38066052 -15.03764166 26.6912584 -15.1875 25 C-15.27128906 24.08089844 -15.35507813 23.16179687 -15.44140625 22.21484375 C-15.53228516 21.14943359 -15.53228516 21.14943359 -15.625 20.0625 C-13.975 19.7325 -12.325 19.4025 -10.625 19.0625 C-10.33625 19.866875 -10.0475 20.67125 -9.75 21.5 C-8.89237432 24.1951468 -8.89237432 24.1951468 -6.625 25.0625 C-5.08476004 25.13200541 -3.54165012 25.14702357 -2 25.125 C-1.18273437 25.11597656 -0.36546875 25.10695312 0.4765625 25.09765625 C1.10304687 25.08605469 1.72953125 25.07445312 2.375 25.0625 C1.88 22.5875 1.88 22.5875 1.375 20.0625 C0.62734375 19.89234375 -0.1203125 19.7221875 -0.890625 19.546875 C-1.87546875 19.30453125 -2.8603125 19.0621875 -3.875 18.8125 C-4.84953125 18.58046875 -5.8240625 18.3484375 -6.828125 18.109375 C-10.00087016 16.92181117 -11.52780138 15.70359827 -13.625 13.0625 C-14.24484499 8.80106568 -14.11811964 6.81861678 -11.75 3.1875 C-8.07310633 -0.48939367 -4.93571421 -0.05919214 0 0 Z " fill="#377EC1" transform="translate(252.625,226.9375)"/>
<path d="M0 0 C4.29 0 8.58 0 13 0 C13.92232422 2.47306641 13.92232422 2.47306641 14.86328125 4.99609375 C15.67909128 7.14345577 16.49553006 9.290579 17.3125 11.4375 C17.71662109 12.52611328 18.12074219 13.61472656 18.53710938 14.73632812 C18.93349609 15.77080078 19.32988281 16.80527344 19.73828125 17.87109375 C20.28029175 19.30859985 20.28029175 19.30859985 20.83325195 20.77514648 C21.8475575 23.33435199 21.8475575 23.33435199 25 24 C25 25.65 25 27.3 25 29 C20.71 29 16.42 29 12 29 C12 27.35 12 25.7 12 24 C13.32 24 14.64 24 16 24 C15.67 23.34 15.34 22.68 15 22 C12.64400765 21.53248212 12.64400765 21.53248212 9.9375 21.375 C9.01839844 21.30023438 8.09929687 21.22546875 7.15234375 21.1484375 C6.44207031 21.09945312 5.73179687 21.05046875 5 21 C5 21.66 5 22.32 5 23 C5.99 23.33 6.98 23.66 8 24 C8 25.65 8 27.3 8 29 C4.04 29 0.08 29 -4 29 C-4 27.35 -4 25.7 -4 24 C-3.01 24 -2.02 24 -1 24 C-0.74476563 23.07380859 -0.74476563 23.07380859 -0.484375 22.12890625 C1.22185424 16.1661796 3.33581117 10.59885369 6 5 C4.02 5 2.04 5 0 5 C0 3.35 0 1.7 0 0 Z M10 9 C8.5393715 11.64738916 8 12.89448334 8 16 C9.65 16 11.3 16 13 16 C12.34 13.69 11.68 11.38 11 9 C10.67 9 10.34 9 10 9 Z " fill="#377EC1" transform="translate(438,228)"/>
<path d="M0 0 C4.29 0 8.58 0 13 0 C13.92232422 2.47306641 13.92232422 2.47306641 14.86328125 4.99609375 C15.67909128 7.14345577 16.49553006 9.290579 17.3125 11.4375 C17.71662109 12.52611328 18.12074219 13.61472656 18.53710938 14.73632812 C18.93349609 15.77080078 19.32988281 16.80527344 19.73828125 17.87109375 C20.28029175 19.30859985 20.28029175 19.30859985 20.83325195 20.77514648 C21.8475575 23.33435199 21.8475575 23.33435199 25 24 C25 25.65 25 27.3 25 29 C20.71 29 16.42 29 12 29 C12 27.35 12 25.7 12 24 C13.32 24 14.64 24 16 24 C15.67 23.34 15.34 22.68 15 22 C12.64400765 21.53248212 12.64400765 21.53248212 9.9375 21.375 C9.01839844 21.30023438 8.09929687 21.22546875 7.15234375 21.1484375 C6.44207031 21.09945312 5.73179687 21.05046875 5 21 C5 21.66 5 22.32 5 23 C5.99 23.33 6.98 23.66 8 24 C8 25.65 8 27.3 8 29 C4.04 29 0.08 29 -4 29 C-4 27.35 -4 25.7 -4 24 C-3.01 24 -2.02 24 -1 24 C-0.74476563 23.07380859 -0.74476563 23.07380859 -0.484375 22.12890625 C1.22185424 16.1661796 3.33581117 10.59885369 6 5 C4.02 5 2.04 5 0 5 C0 3.35 0 1.7 0 0 Z M10 9 C8.5393715 11.64738916 8 12.89448334 8 16 C9.65 16 11.3 16 13 16 C12.34 13.69 11.68 11.38 11 9 C10.67 9 10.34 9 10 9 Z " fill="#377EC1" transform="translate(182,228)"/>
<path d="M0 0 C0 14.52 0 29.04 0 44 C-0.66 44 -1.32 44 -2 44 C-2.59865492 39.27302077 -3.05729354 34.6524291 -3.10546875 29.88671875 C-3.12029297 29.03142578 -3.13511719 28.17613281 -3.15039062 27.29492188 C-3.17540576 25.53727966 -3.18018075 23.77924752 -3.16601562 22.02148438 C-3.22805083 19.54571587 -3.34874032 17.39040939 -4 15 C-7.09590702 12.20860842 -8.95297084 11.14957559 -13.0625 10.5625 C-16.3871874 11.05766621 -18.31335684 12.00420794 -21 14 C-22.28605661 16.57211322 -22.21043941 18.56906966 -22.31640625 21.4453125 C-22.35830078 22.52167969 -22.40019531 23.59804687 -22.44335938 24.70703125 C-22.50233398 26.39892578 -22.50233398 26.39892578 -22.5625 28.125 C-22.60568359 29.26066406 -22.64886719 30.39632812 -22.69335938 31.56640625 C-22.7996604 34.37747768 -22.90169405 37.18863945 -23 40 C-23.99 40 -24.98 40 -26 40 C-26 28.45 -26 16.9 -26 5 C-22.82375 4.175 -19.6475 3.35 -16.375 2.5 C-15.3854834 2.23896484 -14.3959668 1.97792969 -13.37646484 1.70898438 C-12.57934082 1.50595703 -11.7822168 1.30292969 -10.9609375 1.09375 C-9.75123291 0.77954102 -9.75123291 0.77954102 -8.51708984 0.45898438 C-6 0 -6 0 0 0 Z " fill="#4A7DB7" transform="translate(124,152)"/>
<path d="M0 0 C4.29 0 8.58 0 13 0 C13 1.65 13 3.3 13 5 C11.68 5 10.36 5 9 5 C9.14017826 7.97953359 9.28686342 10.95849304 9.4375 13.9375 C9.47681641 14.78763672 9.51613281 15.63777344 9.55664062 16.51367188 C9.61948242 17.72700195 9.61948242 17.72700195 9.68359375 18.96484375 C9.72025146 19.7137085 9.75690918 20.46257324 9.79467773 21.23413086 C9.81771063 23.02461326 9.81771063 23.02461326 11 24 C13.33297433 24.04092937 15.66705225 24.04241723 18 24 C19.23759823 20.28720531 19.35608897 16.68693654 19.5625 12.8125 C19.60568359 12.06291016 19.64886719 11.31332031 19.69335938 10.54101562 C19.79922685 8.69421625 19.9000976 6.84713166 20 5 C18.35 5 16.7 5 15 5 C15 3.35 15 1.7 15 0 C19.29 0 23.58 0 28 0 C28 1.65 28 3.3 28 5 C27.01 5 26.02 5 25 5 C25.05220703 6.73636719 25.05220703 6.73636719 25.10546875 8.5078125 C25.13362207 10.0468604 25.16092056 11.58592411 25.1875 13.125 C25.21263672 13.88554687 25.23777344 14.64609375 25.26367188 15.4296875 C25.32759878 20.37336847 24.78108926 23.73436658 22 28 C18.89013793 30.07324138 18.10891613 30.27392186 14.5625 30.25 C13.80066406 30.25515625 13.03882813 30.2603125 12.25390625 30.265625 C9.68637665 29.96303919 8.14788793 29.44104583 6 28 C4.19217972 25.06074116 3.75840152 22.87828789 3.8046875 19.453125 C3.81113281 18.60878906 3.81757812 17.76445312 3.82421875 16.89453125 C3.84097656 16.02183594 3.85773437 15.14914063 3.875 14.25 C3.88402344 13.36183594 3.89304687 12.47367188 3.90234375 11.55859375 C3.92585423 9.37211942 3.95871501 7.18619906 4 5 C2.68 5 1.36 5 0 5 C0 3.35 0 1.7 0 0 Z " fill="#377EC1" transform="translate(519,228)"/>
<path d="M0 0 C3.84020694 2.05027998 6.42921928 4.94866511 8 9 C9.31608874 20.84479866 9.31608874 20.84479866 6.25 25.625 C5.5075 26.40875 4.765 27.1925 4 28 C3.443125 28.61875 2.88625 29.2375 2.3125 29.875 C-1.41273859 31.68727823 -4.94596943 31.61936578 -9 31 C-13.04258576 29.12843252 -14.61840231 27.64871608 -16.875 23.8125 C-18.69070878 17.65926469 -18.99126109 12.55965363 -16.3125 6.625 C-12.5957666 0.1465272 -7.1609567 -1.36159036 0 0 Z M-10.375 6.8125 C-12.77627271 11.52268877 -12.76175758 15.81538463 -12 21 C-10.62287639 24.26935144 -10.62287639 24.26935144 -8 26 C-5 26.75 -5 26.75 -2 26 C0.84780619 23.76793569 1.84997666 22.45007001 3 19 C3.39527019 13.76266997 2.77531183 10.48319603 0 6 C-3.87331626 4.06334187 -6.93501684 4.18724969 -10.375 6.8125 Z " fill="#377EC1" transform="translate(652,227)"/>
<path d="M0 0 C3.84020694 2.05027998 6.42921928 4.94866511 8 9 C9.31608874 20.84479866 9.31608874 20.84479866 6.25 25.625 C5.5075 26.40875 4.765 27.1925 4 28 C3.443125 28.61875 2.88625 29.2375 2.3125 29.875 C-1.41273859 31.68727823 -4.94596943 31.61936578 -9 31 C-13.04258576 29.12843252 -14.61840231 27.64871608 -16.875 23.8125 C-18.69070878 17.65926469 -18.99126109 12.55965363 -16.3125 6.625 C-12.5957666 0.1465272 -7.1609567 -1.36159036 0 0 Z M-10.375 6.8125 C-12.77627271 11.52268877 -12.76175758 15.81538463 -12 21 C-10.62287639 24.26935144 -10.62287639 24.26935144 -8 26 C-5 26.75 -5 26.75 -2 26 C0.84780619 23.76793569 1.84997666 22.45007001 3 19 C3.39527019 13.76266997 2.77531183 10.48319603 0 6 C-3.87331626 4.06334187 -6.93501684 4.18724969 -10.375 6.8125 Z " fill="#377EC1" transform="translate(368,227)"/>
<path d="M0 0 C4.12093447 0.21210692 6.25523298 1.46142315 9.125 4.5 C13.67592469 11.0988408 12.22745322 20.92984536 12.125 28.5 C11.135 28.83 10.145 29.16 9.125 29.5 C3.03703443 26.10732569 -4.2801372 21.26861038 -6.875 14.5 C-7.56918406 10.06684435 -7.84544836 6.20857727 -5.5859375 2.23046875 C-3.875 0.5 -3.875 0.5 0 0 Z " fill="#DC1884" transform="translate(13.875,83.5)"/>
<path d="M0 0 C7.59 0 15.18 0 23 0 C23 2.97 23 5.94 23 9 C21.68 9 20.36 9 19 9 C18.67 7.68 18.34 6.36 18 5 C15.03 4.67 12.06 4.34 9 4 C9 5.98 9 7.96 9 10 C10.32 10 11.64 10 13 10 C13 9.01 13 8.02 13 7 C14.65 7 16.3 7 18 7 C18 10.3 18 13.6 18 17 C16.35 17 14.7 17 13 17 C13 16.01 13 15.02 13 14 C11.68 14 10.36 14 9 14 C9 16.64 9 19.28 9 22 C12.3 22 15.6 22 19 22 C19 20.02 19 18.04 19 16 C20.65 16 22.3 16 24 16 C24 19.3 24 22.6 24 26 C16.08 26 8.16 26 0 26 C0 24.68 0 23.36 0 22 C1.32 22 2.64 22 4 22 C4 16.06 4 10.12 4 4 C2.68 4 1.36 4 0 4 C0 2.68 0 1.36 0 0 Z " fill="#3A82B5" transform="translate(631,73)"/>
<path d="M0 0 C7.59 0 15.18 0 23 0 C23 2.97 23 5.94 23 9 C21.68 9 20.36 9 19 9 C18.67 7.68 18.34 6.36 18 5 C15.03 4.67 12.06 4.34 9 4 C9 5.98 9 7.96 9 10 C10.32 10 11.64 10 13 10 C13 9.01 13 8.02 13 7 C14.65 7 16.3 7 18 7 C18 10.3 18 13.6 18 17 C16.35 17 14.7 17 13 17 C13 16.01 13 15.02 13 14 C11.68 14 10.36 14 9 14 C9 16.64 9 19.28 9 22 C12.3 22 15.6 22 19 22 C19 20.02 19 18.04 19 16 C20.65 16 22.3 16 24 16 C24 19.3 24 22.6 24 26 C16.08 26 8.16 26 0 26 C0 24.68 0 23.36 0 22 C1.32 22 2.64 22 4 22 C4 16.06 4 10.12 4 4 C2.68 4 1.36 4 0 4 C0 2.68 0 1.36 0 0 Z " fill="#3A82B5" transform="translate(498,73)"/>
<path d="M0 0 C7.59 0 15.18 0 23 0 C23 2.97 23 5.94 23 9 C21.68 9 20.36 9 19 9 C18.67 7.68 18.34 6.36 18 5 C15.03 4.67 12.06 4.34 9 4 C9 5.98 9 7.96 9 10 C10.32 10 11.64 10 13 10 C13 9.01 13 8.02 13 7 C14.65 7 16.3 7 18 7 C18 10.3 18 13.6 18 17 C16.35 17 14.7 17 13 17 C13 16.01 13 15.02 13 14 C11.68 14 10.36 14 9 14 C9 16.64 9 19.28 9 22 C12.3 22 15.6 22 19 22 C19 20.02 19 18.04 19 16 C20.65 16 22.3 16 24 16 C24 19.3 24 22.6 24 26 C16.08 26 8.16 26 0 26 C0 24.68 0 23.36 0 22 C1.32 22 2.64 22 4 22 C4 16.06 4 10.12 4 4 C2.68 4 1.36 4 0 4 C0 2.68 0 1.36 0 0 Z " fill="#3A82B5" transform="translate(391,73)"/>
<path d="M0 0 C9 1 9 1 24 5 C24 16.22 24 27.44 24 39 C23.01 39 22.02 39 21 39 C20.99589111 38.29391602 20.99178223 37.58783203 20.98754883 36.86035156 C20.95462075 33.65605397 20.88397754 30.45365979 20.8125 27.25 C20.80669922 26.13882813 20.80089844 25.02765625 20.79492188 23.8828125 C20.77368637 17.53688548 20.77368637 17.53688548 17.671875 12.26171875 C14.17840067 10.61202254 11.82074231 10.51372371 8 11 C5.74950455 12.1404052 5.74950455 12.1404052 4 14 C3.37667806 16.28749123 3.37667806 16.28749123 3.42578125 18.859375 C3.39806641 19.81070313 3.37035156 20.76203125 3.34179688 21.7421875 C3.33212891 22.73476562 3.32246094 23.72734375 3.3125 24.75 C3.26998325 26.70319392 3.22447588 28.65632534 3.17578125 30.609375 C3.15467285 31.53298828 3.13356445 32.45660156 3.11181641 33.40820312 C2.9712286 36.66689349 2.55186076 39.78754227 2 43 C1.34 43 0.68 43 0 43 C0 28.81 0 14.62 0 0 Z " fill="#557EB1" transform="translate(334,152)"/>
<path d="M0 0 C0.74056641 0.02255859 1.48113281 0.04511719 2.24414062 0.06835938 C4.05947357 0.1269185 5.87375681 0.21659114 7.6875 0.3125 C7.3575 3.6125 7.0275 6.9125 6.6875 10.3125 C5.0375 10.6425 3.3875 10.9725 1.6875 11.3125 C1.44 10.508125 1.1925 9.70375 0.9375 8.875 C-0.03308502 6.20350677 -0.03308502 6.20350677 -2.1875 5.4375 C-4.45748955 5.3039712 -6.1560223 5.61934645 -8.3125 6.3125 C-7.9825 7.6325 -7.6525 8.9525 -7.3125 10.3125 C-6.46945312 10.49425781 -5.62640625 10.67601563 -4.7578125 10.86328125 C-3.66210938 11.11464844 -2.56640625 11.36601563 -1.4375 11.625 C0.19832031 11.99044922 0.19832031 11.99044922 1.8671875 12.36328125 C4.6875 13.3125 4.6875 13.3125 6.6875 16.3125 C7.125 19.1875 7.125 19.1875 6.6875 22.3125 C4.67851959 25.03216716 3.11439148 27.02750401 -0.31713867 27.71289062 C-2.60582394 27.80422492 -4.83807923 27.74960172 -7.125 27.625 C-7.91326172 27.60244141 -8.70152344 27.57988281 -9.51367188 27.55664062 C-11.44743929 27.49804161 -13.38022167 27.40836827 -15.3125 27.3125 C-15.3125 24.0125 -15.3125 20.7125 -15.3125 17.3125 C-13.6625 16.9825 -12.0125 16.6525 -10.3125 16.3125 C-10.085625 17.116875 -9.85875 17.92125 -9.625 18.75 C-8.57045178 21.52207326 -8.57045178 21.52207326 -5.9375 22.1875 C-3.44595783 22.30614487 -1.66426707 22.09642236 0.6875 21.3125 C1.0175 19.9925 1.3475 18.6725 1.6875 17.3125 C0.44033203 17.14814453 0.44033203 17.14814453 -0.83203125 16.98046875 C-2.46205078 16.74263672 -2.46205078 16.74263672 -4.125 16.5 C-5.20394531 16.34917969 -6.28289062 16.19835937 -7.39453125 16.04296875 C-10.41215955 15.28755176 -11.55127367 14.83111377 -13.3125 12.3125 C-13.8125 8.9375 -13.8125 8.9375 -13.3125 5.3125 C-9.32458417 -0.05376343 -6.21783181 -0.36117879 0 0 Z " fill="#3A82B5" transform="translate(434.3125,72.6875)"/>
<path d="M0 0 C3.06398451 -0.13530844 6.12197126 -0.2342407 9.1875 -0.3125 C10.05181641 -0.35439453 10.91613281 -0.39628906 11.80664062 -0.43945312 C16.39036459 -0.52726393 18.33185206 -0.52442341 22.05078125 2.39453125 C25.92013097 7.5665879 25.75725718 12.68677983 25 19 C23.38043957 22.23307772 21.2763371 24.36183145 18 26 C16.62451844 26.08308638 15.24514204 26.10736016 13.8671875 26.09765625 C13.06152344 26.09443359 12.25585938 26.09121094 11.42578125 26.08789062 C10.58402344 26.07951172 9.74226562 26.07113281 8.875 26.0625 C8.02550781 26.05798828 7.17601562 26.05347656 6.30078125 26.04882812 C4.20049091 26.03702874 2.1002367 26.01909306 0 26 C0 24.68 0 23.36 0 22 C1.32 22 2.64 22 4 22 C4 16.06 4 10.12 4 4 C2.68 4 1.36 4 0 4 C0 2.68 0 1.36 0 0 Z M9 4 C9 9.94 9 15.88 9 22 C16.36085638 21.77478029 16.36085638 21.77478029 19 19.4375 C20.4456726 15.91367305 20.77637585 12.69877173 20 9 C18.0405988 5.8735887 18.0405988 5.8735887 15 4 C13.02 4 11.04 4 9 4 Z " fill="#3A82B5" transform="translate(604,73)"/>
<path d="M0 0 C4.95 0 9.9 0 15 0 C15 1.65 15 3.3 15 5 C13.35 5 11.7 5 10 5 C10 11.27 10 17.54 10 24 C13.3 24 16.6 24 20 24 C20 21.03 20 18.06 20 15 C21.65 15 23.3 15 25 15 C25 19.62 25 24.24 25 29 C16.75 29 8.5 29 0 29 C0 27.35 0 25.7 0 24 C1.32 24 2.64 24 4 24 C4 17.73 4 11.46 4 5 C2.68 5 1.36 5 0 5 C0 3.35 0 1.7 0 0 Z " fill="#377EC1" transform="translate(607,228)"/>
<path d="M0 0 C4.95 0 9.9 0 15 0 C15 1.65 15 3.3 15 5 C13.35 5 11.7 5 10 5 C10 11.27 10 17.54 10 24 C13.3 24 16.6 24 20 24 C20 21.03 20 18.06 20 15 C21.65 15 23.3 15 25 15 C25 19.62 25 24.24 25 29 C16.75 29 8.5 29 0 29 C0 27.35 0 25.7 0 24 C1.32 24 2.64 24 4 24 C4 17.73 4 11.46 4 5 C2.68 5 1.36 5 0 5 C0 3.35 0 1.7 0 0 Z " fill="#377EC1" transform="translate(578,228)"/>
<path d="M0 0 C4.29 0 8.58 0 13 0 C13 1.32 13 2.64 13 4 C11.35 4 9.7 4 8 4 C8.14058476 6.45873768 8.28722999 8.91685175 8.4375 11.375 C8.47681641 12.07367188 8.51613281 12.77234375 8.55664062 13.4921875 C8.74280134 17.37360492 8.74280134 17.37360492 10 21 C12.9737344 22.09036928 13.88407501 22.03864166 17 21 C17.33 15.39 17.66 9.78 18 4 C16.68 4 15.36 4 14 4 C14 2.68 14 1.36 14 0 C18.29 0 22.58 0 27 0 C27 1.32 27 2.64 27 4 C25.68 4 24.36 4 23 4 C23.05800781 5.24136719 23.11601562 6.48273438 23.17578125 7.76171875 C23.22269238 9.40360814 23.26819109 11.04553832 23.3125 12.6875 C23.35439453 13.50412109 23.39628906 14.32074219 23.43945312 15.16210938 C23.52788903 19.53084309 23.42473008 21.4218334 20.76171875 25.046875 C17.20937982 27.55913733 15.36082374 27.66794668 11.15625 27.4296875 C7.9355378 26.78787891 6.18832844 25.39348423 4 23 C2.74566542 19.23699626 2.89304578 15.72789091 2.9375 11.8125 C2.94201172 11.06291016 2.94652344 10.31332031 2.95117188 9.54101562 C2.96293646 7.69397617 2.98087135 5.84697787 3 4 C2.01 4 1.02 4 0 4 C0 2.68 0 1.36 0 0 Z " fill="#3A82B5" transform="translate(470,73)"/>
<path d="M0 0 C3.5700978 0.42001151 5.02812354 1.76193001 7.25 4.5 C8.03117187 5.44359375 8.03117187 5.44359375 8.828125 6.40625 C10 8 10 8 10 9 C8.89543457 9.12846313 8.89543457 9.12846313 7.76855469 9.25952148 C4.42871531 9.64948539 1.08935944 10.04344826 -2.25 10.4375 C-3.40886719 10.57220703 -4.56773438 10.70691406 -5.76171875 10.84570312 C-6.87675781 10.97783203 -7.99179687 11.10996094 -9.140625 11.24609375 C-10.68024902 11.42676392 -10.68024902 11.42676392 -12.25097656 11.61108398 C-14.571147 11.93932835 -16.73502886 12.42306771 -19 13 C-32.46867534 13.9898665 -32.46867534 13.9898665 -36.75 11.125 C-40.99538106 7.11547344 -40.99538106 7.11547344 -41.125 3.875 C-41.08375 2.92625 -41.0425 1.9775 -41 1 C-39.22496094 1.433125 -39.22496094 1.433125 -37.4140625 1.875 C-23.87204094 5.09778896 -14.25953099 6.43924747 -1 1 C-0.67 0.67 -0.34 0.34 0 0 Z " fill="#943887" transform="translate(45,162)"/>
<path d="M0 0 C3.96 0 7.92 0 12 0 C13.33988903 3.10148421 14.67211641 6.20588046 16 9.3125 C16.3815625 10.19357422 16.763125 11.07464844 17.15625 11.98242188 C17.5171875 12.82998047 17.878125 13.67753906 18.25 14.55078125 C18.58515625 15.33106689 18.9203125 16.11135254 19.265625 16.9152832 C20 19 20 19 20 22 C20.99 22 21.98 22 23 22 C23 23.32 23 24.64 23 26 C19.04 26 15.08 26 11 26 C11 24.68 11 23.36 11 22 C12.32 22 13.64 22 15 22 C14.67 20.68 14.34 19.36 14 18 C11.03 18.33 8.06 18.66 5 19 C4.67 19.99 4.34 20.98 4 22 C4.99 22 5.98 22 7 22 C7 23.32 7 24.64 7 26 C3.37 26 -0.26 26 -4 26 C-4 24.68 -4 23.36 -4 22 C-3 21 -2 20 -1 19 C0.14292832 16.61125201 1.1932028 14.26018966 2.1875 11.8125 C2.46013672 11.15830078 2.73277344 10.50410156 3.01367188 9.83007812 C3.68239798 8.22278908 4.34209925 6.61175038 5 5 C3.35 4.67 1.7 4.34 0 4 C0 2.68 0 1.36 0 0 Z M9 8 C8.34 9.98 7.68 11.96 7 14 C8.65 14 10.3 14 12 14 C11.34 12.02 10.68 10.04 10 8 C9.67 8 9.34 8 9 8 Z " fill="#3A82B5" transform="translate(554,73)"/>
<path d="M0 0 C1.23105469 0.01546875 2.46210938 0.0309375 3.73046875 0.046875 C6.8125 0.25 6.8125 0.25 8.8125 1.25 C8.8125 4.55 8.8125 7.85 8.8125 11.25 C7.1625 11.25 5.5125 11.25 3.8125 11.25 C2.76357762 9.61368108 1.76343297 7.94514137 0.8125 6.25 C-1.02083333 5.08333333 -1.02083333 5.08333333 -3.1875 5.25 C-6.00858941 6.0418416 -6.00858941 6.0418416 -8.1875 8.25 C-9.593395 12.19502658 -9.55429237 15.29226437 -8.0625 19.1875 C-6.3314424 21.3763168 -6.3314424 21.3763168 -3.875 22.25 C-0.37489227 22.25 1.743912 20.85100243 4.8125 19.25 C5.8025 19.58 6.7925 19.91 7.8125 20.25 C8.1425 21.24 8.4725 22.23 8.8125 23.25 C4.37375128 26.98789366 1.03394407 27.94349245 -4.78125 27.70703125 C-8.7964438 26.94440515 -10.45185126 25.25921361 -13.1875 22.25 C-15.7405845 17.98608568 -15.72646735 14.10070616 -15.1875 9.25 C-13.94406153 5.71601697 -13.00024506 3.86909461 -10.0234375 1.6015625 C-6.48656567 -0.0840541 -3.90188826 -0.08223158 0 0 Z " fill="#3A82B5" transform="translate(459.1875,72.75)"/>
<path d="M0 0 C6.93 0 13.86 0 21 0 C21 1.65 21 3.3 21 5 C18.36 5 15.72 5 13 5 C13 11.27 13 17.54 13 24 C15.64 24 18.28 24 21 24 C21 25.65 21 27.3 21 29 C14.07 29 7.14 29 0 29 C0 27.35 0 25.7 0 24 C2.64 24 5.28 24 8 24 C8 17.73 8 11.46 8 5 C5.36 5 2.72 5 0 5 C0 3.35 0 1.7 0 0 Z " fill="#377EC1" transform="translate(97,228)"/>
<path d="M0 0 C4.34743588 2.38587281 8.62341983 5.68489353 10.125 10.55859375 C10.28162109 11.4403125 10.28162109 11.4403125 10.44140625 12.33984375 C-1.94035391 13.14298495 -12.39303566 10.51553181 -22.55859375 3.33984375 C-15.51138916 -4.08829082 -9.13956538 -3.92094331 0 0 Z " fill="#30B1E1" transform="translate(64.55859375,181.66015625)"/>
<path d="M0 0 C4.62 0 9.24 0 14 0 C14 1.32 14 2.64 14 4 C12.35 4 10.7 4 9 4 C9 9.94 9 15.88 9 22 C11.97 22 14.94 22 18 22 C18.33 19.03 18.66 16.06 19 13 C20.65 13 22.3 13 24 13 C23.67 17.29 23.34 21.58 23 26 C15.41 26 7.82 26 0 26 C0 24.68 0 23.36 0 22 C1.32 22 2.64 22 4 22 C4 16.06 4 10.12 4 4 C2.68 4 1.36 4 0 4 C0 2.68 0 1.36 0 0 Z " fill="#3A82B5" transform="translate(525,73)"/>
<path d="M0 0 C3.06003211 1.14751204 5.92843932 2.47548666 8.8125 4 C16.20792207 7.69771103 23.06981078 8.25236176 31.2421875 8.4609375 C34 9 34 9 35.3828125 10.8515625 C36 13 36 13 36 16 C31.43657398 15.72180231 26.8745336 15.42510432 22.3125 15.125 C20.37213867 15.00705078 20.37213867 15.00705078 18.39257812 14.88671875 C17.14541016 14.80292969 15.89824219 14.71914062 14.61328125 14.6328125 C13.46641846 14.55949707 12.31955566 14.48618164 11.13793945 14.41064453 C6.6910992 13.8287115 3.91284968 12.88817806 0.6875 9.75 C-1.28831289 6.53015677 -1.42195626 4.71321511 -1 1 C-0.67 0.67 -0.34 0.34 0 0 Z " fill="#208BC0" transform="translate(42,185)"/>
<path d="M0 0 C0.74765625 0.49371094 1.4953125 0.98742187 2.265625 1.49609375 C3.74289062 2.45708984 3.74289062 2.45708984 5.25 3.4375 C6.22453125 4.07558594 7.1990625 4.71367187 8.203125 5.37109375 C13.0016425 8.16576107 16.7094634 8.11380126 22.25 8.0625 C23.51328125 8.05347656 24.7765625 8.04445312 26.078125 8.03515625 C27.52445313 8.01775391 27.52445313 8.01775391 29 8 C29.66 10.31 30.32 12.62 31 15 C26.66933052 15.38012146 22.33747694 15.70763968 18 16 C17.04996094 16.06832031 16.09992187 16.13664062 15.12109375 16.20703125 C10.93887579 16.37942802 8.43180839 16.19627654 4.5625 14.4375 C1.45248452 11.47919259 0.22397415 9.10391333 -1 5 C-0.56640625 2.27734375 -0.56640625 2.27734375 0 0 Z " fill="#228BC0" transform="translate(1,125)"/>
<path d="M0 0 C-1.2734962 4.97821242 -2.95954825 7.78600429 -7 11 C-10.0625 12 -10.0625 12 -13 12 C-15.375 10.5625 -15.375 10.5625 -17 9 C-16.67 6.69 -16.34 4.38 -16 2 C-12.5 1.5 -12.5 1.5 -9 1 C-7.741875 0.814375 -6.48375 0.62875 -5.1875 0.4375 C-2 0 -2 0 0 0 Z " fill="#D8096D" transform="translate(34,182)"/>
<path d="M0 0 C6.03523728 3.27408894 12.05469543 6.56493514 18 10 C18 11.98 18 13.96 18 16 C13.51006131 15.41347648 9.77456816 14.2356462 5.625 12.4375 C4.56539063 11.98246094 3.50578125 11.52742188 2.4140625 11.05859375 C1.61742187 10.70925781 0.82078125 10.35992187 0 10 C0 6.7 0 3.4 0 0 Z " fill="#BD5816" transform="translate(318,111)"/>
<path d="M0 0 C0.99 0 1.98 0 3 0 C3.08636719 0.83402344 3.17273438 1.66804688 3.26171875 2.52734375 C4.21173998 10.13622939 5.88585913 15.57824807 10 22 C10.68229494 23.32540403 11.35375567 24.65664953 12 26 C5.92372109 22.96186054 1.10080017 19.20160034 -2 13 C-2.12114921 11.35744209 -2.17540767 9.70947522 -2.1875 8.0625 C-2.20167969 7.18722656 -2.21585937 6.31195313 -2.23046875 5.41015625 C-2 3 -2 3 0 0 Z " fill="#C10C68" transform="translate(9,85)"/>
<path d="M0 0 C3 1 3 1 5 4 C5.125 7.1875 5.125 7.1875 5 10 C5.99 10.33 6.98 10.66 8 11 C8.625 12.8203125 8.625 12.8203125 9 15.125 C9.58462254 18.26797072 10.30548353 20.92965116 11.6875 23.8125 C13 27 13 27 12.6875 29.4375 C12.460625 29.953125 12.23375 30.46875 12 31 C11.01 30.67 10.02 30.34 9 30 C8.234375 28.00390625 8.234375 28.00390625 7.75 25.5625 C7.57984375 24.75941406 7.4096875 23.95632812 7.234375 23.12890625 C7 21 7 21 8 19 C7.34 19 6.68 19 6 19 C3.90649311 15.5980513 3.82057837 12.94727588 4 9 C3.01 8.67 2.02 8.34 1 8 C-0.60769874 5.66883683 -1.09530596 4.57183574 -0.625 1.75 C-0.41875 1.1725 -0.2125 0.595 0 0 Z " fill="#D60B52" transform="translate(368,49)"/>
<path d="M0 0 C0 6.93 0 13.86 0 21 C-1.65 21.33 -3.3 21.66 -5 22 C-5.08685287 18.70849875 -5.14033895 15.4172904 -5.1875 12.125 C-5.21263672 11.18785156 -5.23777344 10.25070313 -5.26367188 9.28515625 C-5.27333984 8.38925781 -5.28300781 7.49335937 -5.29296875 6.5703125 C-5.3086792 5.74289551 -5.32438965 4.91547852 -5.34057617 4.06298828 C-5.22818604 3.38220215 -5.1157959 2.70141602 -5 2 C-2 0 -2 0 0 0 Z " fill="#FAF3EE" transform="translate(224,67)"/>
<path d="M0 0 C0 6.27 0 12.54 0 19 C-1.65 19 -3.3 19 -5 19 C-5 13.06 -5 7.12 -5 1 C-2 0 -2 0 0 0 Z " fill="#FAF3ED" transform="translate(196,79)"/>
<path d="M0 0 C1.32 0.33 2.64 0.66 4 1 C4 7.93 4 14.86 4 22 C2.68 21.67 1.36 21.34 0 21 C0 14.07 0 7.14 0 0 Z " fill="#FDFBFA" transform="translate(240,68)"/>
<path d="M0 0 C2.475 0.99 2.475 0.99 5 2 C5 6.95 5 11.9 5 17 C3.35 16.67 1.7 16.34 0 16 C0 10.72 0 5.44 0 0 Z " fill="#FAF3ED" transform="translate(261,81)"/>
<path d="M0 0 C0.99 0.33 1.98 0.66 3 1 C3.125 8.625 3.125 8.625 2 12 C1.93259135 13.56118428 1.91485544 15.1250252 1.9375 16.6875 C1.94652344 17.49574219 1.95554687 18.30398437 1.96484375 19.13671875 C1.97644531 19.75160156 1.98804688 20.36648437 2 21 C1.01 21.33 0.02 21.66 -1 22 C-2 21 -2 21 -2.125 17.6875 C-2 14 -2 14 -1.4921875 12.0625 C-0.93661337 9.73437982 -0.93682448 7.7013243 -1 5.3125 C-1.03763031 3.87549262 -1.04662859 2.43674355 -1 1 C-0.67 0.67 -0.34 0.34 0 0 Z " fill="#D60B52" transform="translate(380,94)"/>
<path d="M0 0 C0.625 2.875 0.625 2.875 1 6 C-1 8 -1 8 -3.5 8.3125 C-4.7375 8.1578125 -4.7375 8.1578125 -6 8 C-8 5 -8 5 -7.75 2.375 C-7.5025 1.59125 -7.255 0.8075 -7 0 C-4.3333581 -1.33332095 -2.83319697 -0.67102033 0 0 Z " fill="#D60B52" transform="translate(355,96)"/>
<path d="M0 0 C1.828125 0.203125 1.828125 0.203125 4 1 C5.484375 3.109375 5.484375 3.109375 6.75 5.75 C7.17796875 6.61109375 7.6059375 7.4721875 8.046875 8.359375 C9.03636629 11.10075251 9.18702237 13.11154335 9 16 C5.16982558 14.54322426 4.00162963 12.76882213 2.25 9.125 C1.82203125 8.26132812 1.3940625 7.39765625 0.953125 6.5078125 C0 4 0 4 0 0 Z " fill="#FFED00" transform="translate(358,51)"/>
<path d="M0 0 C1.72985242 0.11512153 3.45888751 0.24255677 5.1875 0.375 C6.15042969 0.44460938 7.11335938 0.51421875 8.10546875 0.5859375 C11.01508938 1.00215853 13.32890774 1.79874096 16 3 C15.67 3.99 15.34 4.98 15 6 C9.72 5.34 4.44 4.68 -1 4 C-0.67 2.68 -0.34 1.36 0 0 Z " fill="#FFED00" transform="translate(287,8)"/>
<path d="M0 0 C0.99 0 1.98 0 3 0 C3 4.95 3 9.9 3 15 C1.68 15.33 0.36 15.66 -1 16 C-1.02685095 13.52076199 -1.04676547 11.0418116 -1.0625 8.5625 C-1.07506836 7.50192383 -1.07506836 7.50192383 -1.08789062 6.41992188 C-1.09653588 4.61306441 -1.05220011 2.80612397 -1 1 C-0.67 0.67 -0.34 0.34 0 0 Z " fill="#F9F0E9" transform="translate(138,102)"/>
<path d="M0 0 C1.1446875 0.3403125 1.1446875 0.3403125 2.3125 0.6875 C3 3 3 3 3.3125 5.6875 C2.1875 7.5625 2.1875 7.5625 0.3125 8.6875 C-2.375 8.375 -2.375 8.375 -4.6875 7.6875 C-5.375 5.375 -5.375 5.375 -5.6875 2.6875 C-4.0011022 -0.12316299 -3.27764429 -0.38112143 0 0 Z " fill="#D60B52" transform="translate(338.6875,58.3125)"/>
<path d="M0 0 C2.5625 0.1875 2.5625 0.1875 4.5625 2.1875 C4.1875 5.3125 4.1875 5.3125 3.5625 8.1875 C0.6875 8.3125 0.6875 8.3125 -2.4375 8.1875 C-3.0975 7.5275 -3.7575 6.8675 -4.4375 6.1875 C-3.71780303 0.28598485 -3.71780303 0.28598485 0 0 Z " fill="#D60B52" transform="translate(347.4375,74.8125)"/>
<path d="M0 0 C2.625 0.6875 2.625 0.6875 5 2 C6 5 6 5 5 8 C2.125 8.625 2.125 8.625 -1 9 C-3 7 -3 7 -3.3125 4.5 C-3.209375 3.675 -3.10625 2.85 -3 2 C-2.01 1.34 -1.02 0.68 0 0 Z " fill="#D60B52" transform="translate(318,43)"/>
<path d="M0 0 C2.5625 0.1875 2.5625 0.1875 4.5625 2.1875 C4.00694444 6.74305556 4.00694444 6.74305556 2.5625 8.1875 C0.125 8.375 0.125 8.375 -2.4375 8.1875 C-3.0975 7.5275 -3.7575 6.8675 -4.4375 6.1875 C-3.71780303 0.28598485 -3.71780303 0.28598485 0 0 Z " fill="#D60B52" transform="translate(263.4375,32.8125)"/>
<path d="M0 0 C0 1.32 0 2.64 0 4 C-4.95 4.33 -9.9 4.66 -15 5 C-14.67 3.68 -14.34 2.36 -14 1 C-9.27685687 0.22887459 -4.78478822 -0.09764874 0 0 Z " fill="#FFED00" transform="translate(282,8)"/>
<path d="M0 0 C0.66 0 1.32 0 2 0 C0.7265038 4.97821242 -0.95954825 7.78600429 -5 11 C-8.125 11.9375 -8.125 11.9375 -11 12 C-11.99 11.34 -12.98 10.68 -14 10 C-14 9.34 -14 8.68 -14 8 C-13.39671875 7.90203125 -12.7934375 7.8040625 -12.171875 7.703125 C-7.30783959 6.79307967 -4.10912858 6.14550477 -1 2 C-0.67 1.34 -0.34 0.68 0 0 Z " fill="#C10A65" transform="translate(32,182)"/>
<path d="M0 0 C1.2684375 0.12375 1.2684375 0.12375 2.5625 0.25 C4.5625 3.25 4.5625 3.25 4.25 5.375 C3.5625 7.25 3.5625 7.25 2.5625 8.25 C0.125 8.4375 0.125 8.4375 -2.4375 8.25 C-3.0975 7.59 -3.7575 6.93 -4.4375 6.25 C-3.72185719 0.38172894 -3.72185719 0.38172894 0 0 Z " fill="#D60B52" transform="translate(279.4375,29.75)"/>
<path d="M0 0 C3 1 3 1 4 3 C4.07065617 5.04055005 4.08421976 7.08334257 4.0625 9.125 C4.05347656 10.22070312 4.04445313 11.31640625 4.03515625 12.4453125 C4.02355469 13.28835937 4.01195312 14.13140625 4 15 C2.68 15 1.36 15 0 15 C0 10.05 0 5.1 0 0 Z " fill="#FFED00" transform="translate(371,85)"/>
<path d="M0 0 C5.38096904 0.43047752 8.85493157 1.46152695 13 5 C13 6.32 13 7.64 13 9 C7.99971686 7.65846062 3.80932497 5.51629997 0 2 C0 1.34 0 0.68 0 0 Z " fill="#FFED00" transform="translate(320,18)"/>
<path d="M0 0 C-0.98730656 2.56912029 -1.53557919 3.75972051 -4.0234375 5.046875 C-4.79945313 5.27890625 -5.57546875 5.5109375 -6.375 5.75 C-7.14585937 5.99234375 -7.91671875 6.2346875 -8.7109375 6.484375 C-11 7 -11 7 -15 7 C-14.73046875 5.109375 -14.73046875 5.109375 -14 3 C-9.76812563 0.29321639 -4.9410623 -0.37057967 0 0 Z " fill="#FFED00" transform="translate(262,12)"/>
<path d="M0 0 C1.99954746 -0.04254356 4.00041636 -0.04080783 6 0 C7 1 7 1 7.125 4 C7 7 7 7 6 8 C3.5625 8.1875 3.5625 8.1875 1 8 C0.34 7.34 -0.32 6.68 -1 6 C-0.625 2.875 -0.625 2.875 0 0 Z " fill="#D60B52" transform="translate(295,34)"/>
<path d="M0 0 C5.37992836 0.33990833 9.53273547 0.68557793 14 4 C13.67 4.99 13.34 5.98 13 7 C8.39146203 6.27991594 4.32762591 4.68704061 0 3 C0 2.01 0 1.02 0 0 Z " fill="#FFED00" transform="translate(305,12)"/>
<path d="M0 0 C1.85625 0.1546875 1.85625 0.1546875 3.75 0.3125 C2.08333333 1.97916667 0.41666667 3.64583333 -1.25 5.3125 C-1.9615625 6.17875 -1.9615625 6.17875 -2.6875 7.0625 C-5.00538758 8.91681006 -7.3586184 8.99123538 -10.25 9.3125 C-7.96351572 4.16791038 -6.08014714 -0.01074231 0 0 Z " fill="#377EC1" transform="translate(368.25,216.6875)"/>
<path d="M0 0 C4.68733545 0.28408094 7.20928915 2.51449271 10.64453125 5.4296875 C12 7 12 7 12 10 C7.08624792 9.56643364 4.47270043 7.39377542 1 4 C0.125 1.6875 0.125 1.6875 0 0 Z " fill="#FFED00" transform="translate(335,27)"/>
<path d="M0 0 C1.875 0.5625 1.875 0.5625 4 2 C5.72461906 6.35261001 6.36744847 9.48742006 5 14 C4.01 13.67 3.02 13.34 2 13 C1.015625 10.3125 1.015625 10.3125 0.25 7 C-0.01296875 5.906875 -0.2759375 4.81375 -0.546875 3.6875 C-0.69640625 2.800625 -0.8459375 1.91375 -1 1 C-0.67 0.67 -0.34 0.34 0 0 Z " fill="#FFED00" transform="translate(367,69)"/>
<path d="M0 0 C1.32 0.33 2.64 0.66 4 1 C4 5.29 4 9.58 4 14 C2.68 13.67 1.36 13.34 0 13 C0 8.71 0 4.42 0 0 Z " fill="#F4E3D6" transform="translate(282,93)"/>
<path d="M0 0 C0.66 0 1.32 0 2 0 C2 5.28 2 10.56 2 16 C1.01 16.33 0.02 16.66 -1 17 C-1.02684679 14.35409986 -1.04676357 11.70846904 -1.0625 9.0625 C-1.07087891 8.30775391 -1.07925781 7.55300781 -1.08789062 6.77539062 C-1.09652441 4.85005687 -1.05224333 2.92464419 -1 1 C-0.67 0.67 -0.34 0.34 0 0 Z " fill="#FEFCFB" transform="translate(165,91)"/>
<path d="M0 0 C3.42106076 0.25341191 4.30782184 1.30782184 6.8125 3.8125 C9 7 9 7 8.8125 9.375 C8.544375 9.91125 8.27625 10.4475 8 11 C4.19986075 9.50708815 2.25081784 7.37622677 0 4 C0 2.68 0 1.36 0 0 Z " fill="#FFED00" transform="translate(349,39)"/>
<path d="M0 0 C4.33043075 0.50353846 7.54476313 1.25613543 11 4 C11 5.32 11 6.64 11 8 C6.4926374 7.46972205 3.5460927 5.80388725 0 3 C0 2.01 0 1.02 0 0 Z " fill="#D60B52" transform="translate(329,12)"/>
<path d="M0 0 C1.62752231 0.25523874 3.25203196 0.52974494 4.875 0.8125 C6.23238281 1.03873047 6.23238281 1.03873047 7.6171875 1.26953125 C10 2 10 2 12 5 C11.67 5.33 11.34 5.66 11 6 C9.0390625 5.9140625 9.0390625 5.9140625 6.625 5.625 C5.83351563 5.53476563 5.04203125 5.44453125 4.2265625 5.3515625 C2 5 2 5 -1 4 C-0.67 2.68 -0.34 1.36 0 0 Z " fill="#D60B52" transform="translate(304,2)"/>
<path d="M0 0 C5.75 3.75 5.75 3.75 8 6 C7.625 8.125 7.625 8.125 7 10 C0.45454545 6.18181818 0.45454545 6.18181818 -2 4 C-2 3.01 -2 2.02 -2 1 C-1.34 0.67 -0.68 0.34 0 0 Z " fill="#D60B52" transform="translate(343,19)"/>
<path d="M0 0 C-0.33 0.99 -0.66 1.98 -1 3 C-2.99609375 3.984375 -2.99609375 3.984375 -5.4375 4.75 C-6.24058594 5.01296875 -7.04367188 5.2759375 -7.87109375 5.546875 C-10 6 -10 6 -12 5 C-11.375 3.125 -11.375 3.125 -10 1 C-6.34962875 -0.66647383 -3.81601142 -1.4676967 0 0 Z " fill="#D60B52" transform="translate(260,5)"/>
<path d="M0 0 C1.75 0.125 1.75 0.125 4 1 C8 6.11111111 8 6.11111111 8 10 C6.68 10 5.36 10 4 10 C1.03256687 6.37313728 0 4.7546322 0 0 Z " fill="#D60B52" transform="translate(360,38)"/>
<path d="M0 0 C0.99 0 1.98 0 3 0 C3 4.62 3 9.24 3 14 C2.01 14 1.02 14 0 14 C0 9.38 0 4.76 0 0 Z " fill="#FDFBF9" transform="translate(112,112)"/>
<path d="M0 0 C2.97 0.33 5.94 0.66 9 1 C8.67 2.65 8.34 4.3 8 6 C5.69 5.67 3.38 5.34 1 5 C0.67 3.35 0.34 1.7 0 0 Z " fill="#31B2E2" transform="translate(288,52)"/>
<path d="M0 0 C1.134375 0.020625 2.26875 0.04125 3.4375 0.0625 C3.7675 1.7125 4.0975 3.3625 4.4375 5.0625 C1.7975 5.0625 -0.8425 5.0625 -3.5625 5.0625 C-4.125 3.125 -4.125 3.125 -4.5625 1.0625 C-3.5625 0.0625 -3.5625 0.0625 0 0 Z " fill="#31B2E2" transform="translate(272.5625,48.9375)"/>
<path d="M0 0 C1.62418745 -0.08090971 3.24951745 -0.13914995 4.875 -0.1875 C5.77992188 -0.22230469 6.68484375 -0.25710937 7.6171875 -0.29296875 C8.79667969 -0.14794922 8.79667969 -0.14794922 10 0 C10.66 0.99 11.32 1.98 12 3 C11 4 11 4 9.00390625 4.1328125 C8.19824219 4.13023437 7.39257812 4.12765625 6.5625 4.125 C5.75941406 4.12757813 4.95632813 4.13015625 4.12890625 4.1328125 C2 4 2 4 0 3 C0 2.01 0 1.02 0 0 Z " fill="#D60B52" transform="translate(290,1)"/>
<path d="M0 0 C4.17451972 0.37106842 6.94298088 1.06055854 10 4 C10 4.66 10 5.32 10 6 C7 7 7 7 3.375 5.75 C0 4 0 4 -1 1 C-0.67 0.67 -0.34 0.34 0 0 Z " fill="#D60B52" transform="translate(317,6)"/>
<path d="M0 0 C-0.33 0.99 -0.66 1.98 -1 3 C-4.47325181 4.1577506 -7.36067448 4.06866652 -11 4 C-11 3.01 -11 2.02 -11 1 C-3.57142857 -1.42857143 -3.57142857 -1.42857143 0 0 Z " fill="#D60B52" transform="translate(274,2)"/>
<path d="M0 0 C0 1.32 0 2.64 0 4 C-3.3 4 -6.6 4 -10 4 C-10 3.01 -10 2.02 -10 1 C-6.59437148 0.22157062 -3.49234244 -0.09978121 0 0 Z " fill="#D60B52" transform="translate(287,0)"/>
<path d="M0 0 C1.32 0.66 2.64 1.32 4 2 C3.67 3.65 3.34 5.3 3 7 C1.35 7 -0.3 7 -2 7 C-2.6875 5.1875 -2.6875 5.1875 -3 3 C-1.5625 1.25 -1.5625 1.25 0 0 Z " fill="#377EC1" transform="translate(537,218)"/>
<path d="M0 0 C2.125 0.9375 2.125 0.9375 4 2 C3.67 3.65 3.34 5.3 3 7 C1.35 7 -0.3 7 -2 7 C-2 5.02 -2 3.04 -2 1 C-1.34 0.67 -0.68 0.34 0 0 Z " fill="#377EC1" transform="translate(528,218)"/>
<path d="M0 0 C0.99 0 1.98 0 3 0 C3 3.96 3 7.92 3 12 C2.01 12 1.02 12 0 12 C0 8.04 0 4.08 0 0 Z " fill="#F2DFD0" transform="translate(89,122)"/>
<path d="M0 0 C0.99 0.33 1.98 0.66 3 1 C3.33 3.64 3.66 6.28 4 9 C3.01 9.66 2.02 10.32 1 11 C-0.59555725 7.50971852 -1.32049797 4.84597567 -1 1 C-0.67 0.67 -0.34 0.34 0 0 Z " fill="#D60B52" transform="translate(379,82)"/>
<path d="M0 0 C-1 3 -1 3 -2.8125 4.1875 C-5 5 -5 5 -9 5 C-8.75 3.125 -8.75 3.125 -8 1 C-5.08518252 -1.1107299 -3.34823603 -1.19579858 0 0 Z " fill="#D60B52" transform="translate(247,10)"/>
<path d="M0 0 C2.9375 0.75 2.9375 0.75 6 2 C6.875 4.125 6.875 4.125 7 6 C5.1875 6.6875 5.1875 6.6875 3 7 C1.25 5.8125 1.25 5.8125 0 4 C0 2.68 0 1.36 0 0 Z " fill="#31B2E2" transform="translate(306,60)"/>
<path d="M0 0 C0.99 0.33 1.98 0.66 3 1 C2.67 3.31 2.34 5.62 2 8 C0.68 8.33 -0.64 8.66 -2 9 C-2.25 3.375 -2.25 3.375 0 0 Z " fill="#D60B52" transform="translate(378,117)"/>
<path d="M0 0 C1.65 0.33 3.3 0.66 5 1 C4.67 2.65 4.34 4.3 4 6 C2.35 5.67 0.7 5.34 -1 5 C-0.67 3.35 -0.34 1.7 0 0 Z " fill="#009FE3" transform="translate(319,27)"/>
<path d="M0 0 C1.65 0.33 3.3 0.66 5 1 C4.67 2.65 4.34 4.3 4 6 C2.35 5.67 0.7 5.34 -1 5 C-0.67 3.35 -0.34 1.7 0 0 Z " fill="#009FE3" transform="translate(247,27)"/>
<path d="M0 0 C1.65 0.33 3.3 0.66 5 1 C4.67 2.65 4.34 4.3 4 6 C2.35 5.67 0.7 5.34 -1 5 C-0.67 3.35 -0.34 1.7 0 0 Z " fill="#009FE3" transform="translate(354,62)"/>
<path d="M0 0 C1.32 0 2.64 0 4 0 C5.125 3.75 5.125 3.75 4 6 C2.35 6 0.7 6 -1 6 C-1.042721 4.33388095 -1.04063832 2.66617115 -1 1 C-0.67 0.67 -0.34 0.34 0 0 Z " fill="#009FE3" transform="translate(345,47)"/>
<path d="M0 0 C1.32 0 2.64 0 4 0 C6.41847197 2.50484597 7 3.46013806 7 7 C5.68 7 4.36 7 3 7 C0.58152803 4.49515403 0 3.53986194 0 0 Z " fill="#D60B52" transform="translate(352,29)"/>
<path d="M0 0 C2.125 0.375 2.125 0.375 4 1 C4 2.65 4 4.3 4 6 C2.35 6 0.7 6 -1 6 C-1.625 4.125 -1.625 4.125 -2 2 C-1.34 1.34 -0.68 0.68 0 0 Z " fill="#009FE3" transform="translate(362,92)"/>
<path d="M0 0 C2 0.25 2 0.25 4 1 C4.33 1.99 4.66 2.98 5 4 C4.67 4.66 4.34 5.32 4 6 C2.35 6 0.7 6 -1 6 C-1.042721 4.33388095 -1.04063832 2.66617115 -1 1 C-0.67 0.67 -0.34 0.34 0 0 Z " fill="#009FE3" transform="translate(262,21)"/>
<path d="M0 0 C1.65 0 3.3 0 5 0 C5 1.65 5 3.3 5 5 C3.35 5.33 1.7 5.66 0 6 C0 4.02 0 2.04 0 0 Z " fill="#009FE3" transform="translate(359,77)"/>
<path d="M0 0 C1.65 0 3.3 0 5 0 C5 1.65 5 3.3 5 5 C3.0625 5.5625 3.0625 5.5625 1 6 C0 5 0 5 -0.0625 2.4375 C-0.041875 1.633125 -0.02125 0.82875 0 0 Z " fill="#009FE3" transform="translate(333,37)"/>
<path d="M0 0 C0.99 0.33 1.98 0.66 3 1 C3.33 1.99 3.66 2.98 4 4 C3.67 4.66 3.34 5.32 3 6 C1.35 6 -0.3 6 -2 6 C-2 4.35 -2 2.7 -2 1 C-1.34 0.67 -0.68 0.34 0 0 Z " fill="#009FE3" transform="translate(304,20)"/>
<path d="M0 0 C1.65 0 3.3 0 5 0 C5 1.65 5 3.3 5 5 C3.0625 5.5625 3.0625 5.5625 1 6 C0 5 0 5 -0.0625 2.4375 C-0.041875 1.633125 -0.02125 0.82875 0 0 Z " fill="#009FE3" transform="translate(282,19)"/>
<path d="M0 0 C0.99 0 1.98 0 3 0 C3 2.97 3 5.94 3 9 C2.01 9 1.02 9 0 9 C0 6.03 0 3.06 0 0 Z " fill="#F3E1D2" transform="translate(301,104)"/>
<path d="M0 0 C0.99 0 1.98 0 3 0 C3.33 1.32 3.66 2.64 4 4 C3.01 4.66 2.02 5.32 1 6 C0.34 5.34 -0.32 4.68 -1 4 C-0.625 1.875 -0.625 1.875 0 0 Z " fill="#31B2E2" transform="translate(328,84)"/>
<path d="M0 0 C1.32 0.33 2.64 0.66 4 1 C4.33 2.32 4.66 3.64 5 5 C4.01 5.33 3.02 5.66 2 6 C0 3 0 3 0 0 Z " fill="#31B2E2" transform="translate(321,71)"/>
<path d="M0 0 C0.99 0.33 1.98 0.66 3 1 C2.67 2.65 2.34 4.3 2 6 C1.01 5.34 0.02 4.68 -1 4 C-0.67 2.68 -0.34 1.36 0 0 Z " fill="#31B2E2" transform="translate(331,96)"/>
<path d="" fill="#3A82B5" transform="translate(0,0)"/>
<path d="" fill="#3A82B5" transform="translate(0,0)"/>
<path d="" fill="#3A82B5" transform="translate(0,0)"/>
</svg>
